<svg aria-hidden="true" style="position: absolute; width: 0; height: 0; overflow: hidden;" version="1.1" xmlns="http://www.w3.org/2000/svg" xmlns:xlink="http://www.w3.org/1999/xlink">
<defs>
<symbol id="icon-FR" viewBox="0 0 252 32">
<path fill="#007082" style="fill: var(--color1, #007082)" d="M1.782 24.648c-0.819 0-1.334-0.282-1.52-0.4-0.116-0.238-0.244-1.007-0.263-1.515 0.048-0.077 0.194-0.097 0.233-0.032 0.147 0.552 0.546 1.612 1.676 1.612 0.817 0 1.217-0.596 1.217-1.244 0-0.477-0.088-1.006-0.798-1.516l-0.926-0.671c-0.487-0.357-1.053-0.974-1.053-1.862 0-1.028 0.721-1.862 1.987-1.862 0.302 0 0.653 0.055 0.906 0.141 0.127 0.032 0.263 0.065 0.341 0.065 0.088 0.26 0.175 0.866 0.175 1.32-0.039 0.065-0.194 0.097-0.243 0.032-0.127-0.518-0.39-1.223-1.325-1.223-0.954 0-1.159 0.704-1.159 1.202 0 0.627 0.468 1.071 0.828 1.331l0.779 0.541c0.613 0.422 1.218 1.050 1.218 2.078 0.001 1.191-0.808 2.002-2.074 2.002z"></path>
<path fill="#007082" style="fill: var(--color1, #007082)" d="M12.091 24.313c-1.919 0-2.62-2.078-2.62-3.68 0-2.37 1.314-3.139 2.327-3.139 1.861 0 2.572 1.927 2.572 3.712 0 2.132-1.111 3.106-2.279 3.106zM11.964 24.648c1.88 0 3.38-1.591 3.38-3.777 0-1.904-1.13-3.712-3.38-3.712-2.007 0-3.467 1.657-3.467 3.82 0 1.948 1.304 3.669 3.467 3.669z"></path>
<path fill="#007082" style="fill: var(--color1, #007082)" d="M22.771 22.851c0 1.137 0.018 1.288 0.584 1.353l0.312 0.032c0.058 0.043 0.039 0.239-0.020 0.272-0.555-0.021-0.886-0.033-1.276-0.033-0.388 0-0.73 0.011-1.353 0.033-0.059-0.033-0.078-0.217 0-0.272l0.35-0.032c0.555-0.054 0.604-0.216 0.604-1.353v-4.838c0-0.336 0-0.346-0.292-0.346h-0.536c-0.419 0-0.954 0.022-1.198 0.27-0.234 0.239-0.331 0.477-0.438 0.747-0.078 0.065-0.214 0.011-0.253-0.075 0.156-0.488 0.302-1.18 0.371-1.613 0.029-0.022 0.156-0.032 0.185 0 0.059 0.347 0.38 0.336 0.828 0.336h3.944c0.527 0 0.614-0.021 0.76-0.303 0.049-0.022 0.156-0.011 0.175 0.032-0.106 0.444-0.175 1.322-0.146 1.646-0.038 0.086-0.204 0.086-0.253 0.020-0.029-0.27-0.097-0.671-0.244-0.791-0.224-0.183-0.593-0.27-1.129-0.27h-0.692c-0.292 0-0.282 0.011-0.282 0.368v4.816z"></path>
<path fill="#007082" style="fill: var(--color1, #007082)" d="M30.546 18.955c0-1.125-0.019-1.287-0.594-1.363l-0.155-0.022c-0.058-0.043-0.039-0.238 0.019-0.27 0.419 0.021 0.75 0.032 1.149 0.032h1.831c0.623 0 1.199 0 1.315-0.032 0.059 0.184 0.117 0.963 0.156 1.439-0.038 0.065-0.195 0.087-0.243 0.022-0.146-0.509-0.234-0.887-0.741-1.028-0.204-0.054-0.515-0.065-0.944-0.065h-0.702c-0.292 0-0.292 0.022-0.292 0.433v2.164c0 0.303 0.029 0.303 0.321 0.303h0.566c0.409 0 0.711-0.021 0.828-0.065s0.185-0.109 0.234-0.379l0.078-0.444c0.048-0.065 0.214-0.065 0.253 0.011 0 0.259-0.039 0.681-0.039 1.093 0 0.389 0.039 0.801 0.039 1.039-0.039 0.076-0.206 0.076-0.253 0.011l-0.088-0.423c-0.039-0.195-0.107-0.356-0.302-0.411-0.135-0.043-0.37-0.055-0.749-0.055h-0.566c-0.292 0-0.321 0.012-0.321 0.293v1.526c0 0.573 0.029 0.941 0.185 1.126 0.117 0.129 0.321 0.248 1.178 0.248 0.75 0 1.032-0.043 1.247-0.162 0.175-0.109 0.438-0.487 0.692-1.050 0.067-0.054 0.204-0.022 0.242 0.076-0.068 0.378-0.311 1.212-0.438 1.504-0.877-0.021-1.743-0.033-2.611-0.033h-0.876c-0.42 0-0.751 0.011-1.325 0.033-0.058-0.033-0.077-0.206-0.019-0.272l0.32-0.032c0.556-0.054 0.604-0.216 0.604-1.353v-3.896z"></path>
<path fill="#007082" style="fill: var(--color1, #007082)" d="M42.257 22.851c0 1.137 0.019 1.288 0.584 1.353l0.312 0.032c0.058 0.043 0.040 0.239-0.019 0.272-0.555-0.021-0.887-0.033-1.276-0.033-0.39 0-0.731 0.011-1.354 0.033-0.059-0.033-0.077-0.217 0-0.272l0.35-0.032c0.556-0.054 0.604-0.216 0.604-1.353v-4.838c0-0.336 0-0.346-0.292-0.346h-0.535c-0.419 0-0.955 0.022-1.199 0.27-0.234 0.239-0.331 0.477-0.438 0.747-0.078 0.065-0.215 0.011-0.253-0.075 0.156-0.488 0.302-1.18 0.37-1.613 0.029-0.022 0.156-0.032 0.185 0 0.058 0.347 0.38 0.336 0.828 0.336h3.945c0.526 0 0.614-0.021 0.76-0.303 0.048-0.022 0.155-0.011 0.176 0.032-0.107 0.444-0.176 1.322-0.146 1.646-0.039 0.086-0.205 0.086-0.254 0.020-0.029-0.27-0.097-0.671-0.243-0.791-0.225-0.183-0.594-0.27-1.13-0.27h-0.692c-0.293 0-0.283 0.011-0.283 0.368v4.816z"></path>
<path fill="#007082" style="fill: var(--color1, #007082)" d="M50.851 24.648c-0.819 0-1.334-0.282-1.52-0.4-0.117-0.239-0.244-1.007-0.263-1.515 0.049-0.077 0.195-0.097 0.234-0.032 0.147 0.552 0.545 1.612 1.675 1.612 0.818 0 1.217-0.596 1.217-1.244 0-0.477-0.087-1.006-0.798-1.516l-0.925-0.671c-0.488-0.357-1.052-0.974-1.052-1.862 0-1.028 0.721-1.862 1.987-1.862 0.302 0 0.652 0.055 0.905 0.141 0.127 0.032 0.263 0.065 0.341 0.065 0.087 0.26 0.175 0.866 0.175 1.32-0.038 0.065-0.194 0.097-0.243 0.032-0.127-0.518-0.39-1.223-1.324-1.223-0.955 0-1.16 0.704-1.16 1.202 0 0.627 0.468 1.071 0.829 1.331l0.78 0.541c0.613 0.422 1.217 1.050 1.217 2.078 0.001 1.191-0.808 2.002-2.075 2.002z"></path>
<path fill="#007082" style="fill: var(--color1, #007082)" d="M63.009 20.048c0-0.671-0.019-1.916-0.185-2.24-0.068-0.131-0.243-0.207-0.487-0.228l-0.243-0.022c-0.059-0.075-0.038-0.216 0.020-0.259 0.369 0.021 0.73 0.032 1.11 0.032 0.409 0 0.671-0.011 1.022-0.032 0.078 0.055 0.069 0.195 0.020 0.259l-0.234 0.022c-0.243 0.021-0.438 0.119-0.487 0.26-0.147 0.358-0.137 1.602-0.137 2.208v1.223c0 0.941-0.136 1.937-0.681 2.587-0.419 0.507-1.139 0.789-1.86 0.789-0.672 0-1.344-0.14-1.822-0.594-0.516-0.477-0.759-1.266-0.759-2.555v-2.554c0-1.126-0.020-1.31-0.585-1.363l-0.243-0.022c-0.058-0.043-0.039-0.227 0.019-0.259 0.487 0.021 0.819 0.032 1.209 0.032 0.399 0 0.721-0.011 1.197-0.032 0.059 0.032 0.077 0.216 0.019 0.259l-0.234 0.022c-0.565 0.054-0.584 0.237-0.584 1.363v2.338c0 1.743 0.487 2.889 1.977 2.889 1.413 0 1.948-1.234 1.948-2.879v-1.244z"></path>
<path fill="#007082" style="fill: var(--color1, #007082)" d="M200.756 13.108c0.998 0.188 1.412 0.447 1.42 2.915v13.172h2.94c0 0 0.002-16.685 0.002-16.691-1.166 0-4.863 0-4.863 0l-0.001 0.535 0.502 0.069z"></path>
<path fill="#007082" style="fill: var(--color1, #007082)" d="M228.417 12.505c-1.412-0.004-3.594 0-3.594 0l0.003 0.527 0.527 0.077c0.632 0.102 0.942 0.36 1.21 0.727 0.693 0.945 0.538 2.997 0.538 4.899v4.996c0 0.405 0 0.532-0.076 0.608-0.253-0.152-9.706-10.805-10.57-11.828-0.449-0.003-4.456 0.002-4.456 0.002l0.002 0.628 0.272 0.046c0.347 0.063 0.941 0.202 1.343 0.506 0.814 0.618 0.836 1.14 0.836 3.117v12.385h1.318v-11.398c0-1.342 0-1.621 0.076-1.621 0.431 0.38 10.986 12.459 11.448 13.022h1.122v-16.693z"></path>
<path fill="#007082" style="fill: var(--color1, #007082)" d="M251.704 12.505c-1.414-0.004-3.593 0-3.593 0v0.527l0.528 0.077c0.633 0.102 0.941 0.36 1.211 0.727 0.693 0.945 0.538 2.997 0.538 4.899v4.996c0 0.405 0 0.532-0.075 0.608-0.255-0.152-9.706-10.805-10.57-11.828-0.449-0.003-4.456 0.002-4.456 0.002l0.002 0.628 0.273 0.046c0.347 0.063 0.94 0.202 1.342 0.506 0.814 0.618 0.836 1.14 0.836 3.117v12.385h1.318v-11.398c0-1.342 0-1.621 0.077-1.621 0.43 0.38 10.985 12.459 11.447 13.022h1.124l-0.001-16.693z"></path>
<path fill="#ee7826" style="fill: var(--color2, #ee7826)" d="M126.222 5.907c3.171-0.584 8.642-1.902 11.098-2.674 0.011 0.007-1.988-3.231-1.998-3.233-2.119 2.015-6.523 4.533-9.188 5.749 0.026 0.043 0.061 0.115 0.088 0.158z"></path>
<path fill="#007082" style="fill: var(--color1, #007082)" d="M117.427 30.831c-0.429-0.052-1.43-0.269-2.28-0.998-1.526-1.265-3.149-4.010-5.746-8.393-0.13-0.194-0.195-0.454 0-0.551 1.59-0.65 3.895-2.143 3.895-5.129 0-2.338-1.2-3.863-2.856-4.74-1.428-0.779-3.615-0.811-6.147-0.811-2.662 0-7.401 0-7.401 0s0.001 0.658 0.001 0.66c0.223 0.006 0.383 0.037 0.744 0.126 1.102 0.268 1.538 0.848 1.538 3.888v16.567h3.766v-18.643c0-1.493 0.003-1.45 1.692-1.45 2.824 0 4.508 2.098 4.508 4.663 0 2.992-1.354 4.515-4.368 4.665v0.333c0.43 0.687 0.786 1.312 1.187 1.981 0.779 1.266 1.689 3.053 2.565 4.415 1.98 3.018 3.533 4.041 6.649 4.041 1.001 0 2.249 0.006 2.253 0.004v-0.628z"></path>
<path fill="#007082" style="fill: var(--color1, #007082)" d="M139.568 27.034c0 0-0.33 3.237-3.951 3.237-0.305 0-1.945 0.006-2.297 0.006-2.118 0-2.957-0.259-3.345-0.715-0.488-0.551-0.552-1.719-0.552-3.375v-4.316c0-0.811 0.032-0.876 0.779-0.876h2.922c1.957 0.008 2.349 0.609 2.639 1.285 0.255 0.595 0.231 1.469 0.231 1.469l0.634 0.006v-6.654l-0.651 0.004c0 0-0.036 0.499-0.224 1.128-0.312 1.050-1.020 1.432-2.629 1.432h-2.922c-0.747 0-0.779-0.032-0.779-0.876v-5.545c0-1.85 0-1.915 1.395-1.915h2.956c0.876 0 1.873 0.161 2.498 0.331 0.993 0.341 1.616 1.359 1.852 2.577h0.498c0 0.003 0-4.024 0-4.024l-11.049 0.006c-1.429 0-4.188-0.006-4.188-0.006l-0.005 0.657 0.461 0.067c1.256 0.248 1.795 0.618 1.817 3.765v16.747l14.433 0.001-0.008-4.412-0.515-0.004z"></path>
<path fill="#007082" style="fill: var(--color1, #007082)" d="M78.843 31.449l0.006-9.578c0-0.811 0.032-0.876 0.779-0.876h2.924c1.958 0.008 2.349 0.609 2.639 1.285 0.255 0.595 0.231 1.469 0.231 1.469l0.634 0.006v-6.655l-0.652 0.004c0 0-0.037 0.499-0.223 1.128-0.313 1.050-1.021 1.432-2.629 1.432h-2.924c-0.746 0-0.779-0.032-0.779-0.876v-5.55c0-1.8 0.084-1.915 1.396-1.915h2.956c0.877 0 1.873 0.16 2.498 0.331 0.993 0.34 1.616 1.357 1.852 2.577h0.498c0 0.003 0-4.024 0-4.024l-15.244 0.004v0.654l0.46 0.068c1.256 0.248 1.796 0.616 1.818 3.766v16.752h3.759z"></path>
<path fill="#007082" style="fill: var(--color1, #007082)" d="M149.869 31.195v-3.966h0.448l0.097 0.443c0.338 1.026 1.288 2.136 2.108 2.562 1.024 0.534 1.957 0.698 3.169 0.698 1.144 0 2.229-0.369 2.958-1.058 0.831-0.786 1.273-1.824 1.273-2.96 0-0.896-0.242-1.724-0.659-2.273-0.419-0.538-1.19-1.165-2.384-1.82l-1.44-0.78c-3.6-1.973-5.468-4.12-5.468-6.441 0-1.819 0.586-3.28 1.895-4.382 1.306-1.102 3.044-1.653 5.209-1.653 1.699 0 3.64 0.312 5.826 0.939v3.829h-0.493l-0.168-0.511c-0.324-0.951-0.95-1.745-1.578-2.193-0.832-0.596-2.081-1.016-3.286-0.927-0.929 0.070-1.735 0.379-2.416 1.005-0.537 0.493-1.031 1.187-1.064 2.283-0.024 0.794 0.151 1.608 0.635 2.263 0.392 0.53 1.228 1.095 2.415 1.769l1.459 0.837c2.129 1.214 3.589 2.292 4.377 3.235 0.779 0.954 1.303 2.114 1.303 3.48 0 1.955-0.736 3.514-2.209 4.679-1.472 1.165-3.452 1.747-5.94 1.747-1.759 0-3.782-0.269-6.066-0.805z"></path>
<path fill="#007082" style="fill: var(--color1, #007082)" d="M181.191 10.209l-5.052 0.003 0.001 0.549c0 0 0.444 0.036 0.736 0.39 0.283 0.342 0.464 0.747 0.243 1.635l-6.693 18.666h1.633l6.287-17.759 7.505 17.759h4.411l-9.071-21.243z"></path>
</symbol>
<symbol id="icon-HOTEL" viewBox="0 0 460 32">
<path d="M288.329 31.104c0 0.167-0.133 0.3-0.298 0.3h-14.055c-0.164 0-0.297-0.134-0.297-0.3 0-0.165 0.133-0.294 0.297-0.294h3.929v-14.617h-12.347v14.616h3.931c0.165 0 0.297 0.129 0.297 0.294 0 0.167-0.133 0.3-0.297 0.3h-14.055c-0.165 0-0.299-0.134-0.299-0.3 0-0.165 0.134-0.294 0.299-0.294h3.93v-29.23h-3.93c-0.165 0-0.299-0.131-0.299-0.295s0.134-0.3 0.299-0.3h14.055c0.165 0 0.297 0.135 0.297 0.3s-0.133 0.295-0.297 0.295h-3.931v14.016h12.347v-14.016h-3.929c-0.165 0-0.297-0.131-0.297-0.295s0.132-0.3 0.297-0.3h14.055c0.165 0 0.298 0.135 0.298 0.3s-0.133 0.295-0.298 0.295h-3.93v29.231h3.93c0.165 0 0.298 0.129 0.298 0.294zM428.757 21.468c-0.154 0-0.229 0.069-0.277 0.279-0.369 1.651-0.89 3.053-1.559 4.206-0.67 1.157-1.426 2.097-2.266 2.822s-1.737 1.247-2.692 1.558c-0.953 0.316-1.9 0.476-2.84 0.476h-7.050v-29.23h3.931c0.164 0 0.297-0.131 0.297-0.295s-0.133-0.3-0.297-0.3h-14.056c-0.163 0-0.297 0.135-0.297 0.3s0.134 0.295 0.297 0.295h3.931v29.231h-3.931c-0.163 0-0.297 0.129-0.297 0.294 0 0.167 0.134 0.3 0.297 0.3h27.087v-9.657c0-0.153-0.124-0.279-0.277-0.279zM392.981 21.768c-0.153 0-0.231 0.089-0.277 0.278-0.285 1.225-0.699 2.371-1.239 3.439-0.542 1.069-1.217 2.001-2.030 2.798-0.811 0.797-1.745 1.418-2.798 1.858-1.053 0.443-2.236 0.667-3.546 0.667h-6.449v-14.616h3.42c0.997 0 1.83 0.171 2.499 0.513s1.232 0.804 1.688 1.388c0.455 0.584 0.818 1.261 1.089 2.030s0.505 1.567 0.705 2.392c0.048 0.209 0.125 0.277 0.278 0.277s0.277-0.124 0.277-0.277v-13.288c0-0.153-0.126-0.279-0.277-0.279-0.154 0-0.239 0.091-0.278 0.279-0.2 0.969-0.456 1.844-0.769 2.627s-0.712 1.452-1.197 2.008c-0.484 0.557-1.088 0.983-1.815 1.282s-1.619 0.449-2.672 0.449h-2.949v-14.016h7.351c1.395 0 2.577 0.264 3.546 0.792s1.759 1.146 2.371 1.858c0.612 0.712 1.089 1.446 1.431 2.201 0.342 0.756 0.584 1.375 0.726 1.858 0.054 0.176 0.125 0.278 0.278 0.278s0.278-0.125 0.278-0.278v-7.303h-26.107c-0.164 0-0.296 0.131-0.296 0.297 0 0.165 0.133 0.298 0.296 0.298h3.931v29.231h-3.931c-0.164 0-0.296 0.129-0.296 0.295s0.133 0.3 0.296 0.3h26.743v-9.357c0-0.156-0.124-0.279-0.278-0.279zM129.001 21.768c-0.153 0-0.231 0.089-0.277 0.278-0.285 1.225-0.699 2.371-1.239 3.439-0.542 1.069-1.217 2.001-2.030 2.798-0.811 0.797-1.745 1.418-2.798 1.858-1.053 0.443-2.236 0.667-3.546 0.667h-6.45v-14.616h3.42c0.996 0 1.83 0.171 2.5 0.513 0.668 0.341 1.232 0.804 1.688 1.388s0.818 1.261 1.089 2.030c0.27 0.768 0.505 1.567 0.705 2.392 0.048 0.209 0.125 0.277 0.278 0.277s0.278-0.124 0.278-0.277v-13.288c0-0.153-0.126-0.279-0.278-0.279s-0.239 0.091-0.278 0.279c-0.2 0.969-0.456 1.844-0.769 2.627s-0.712 1.452-1.197 2.008c-0.484 0.557-1.089 0.983-1.816 1.282s-1.617 0.449-2.671 0.449h-2.949v-14.016h7.351c1.395 0 2.577 0.264 3.546 0.792s1.759 1.146 2.371 1.858c0.612 0.712 1.089 1.446 1.431 2.201 0.341 0.756 0.584 1.375 0.726 1.858 0.054 0.176 0.125 0.278 0.278 0.278s0.277-0.125 0.277-0.278v-7.303h-26.107c-0.164 0-0.296 0.131-0.296 0.297 0 0.165 0.133 0.298 0.296 0.298h3.931v29.231h-3.931c-0.164 0-0.296 0.129-0.296 0.295s0.133 0.3 0.296 0.3h26.744v-9.357c0-0.156-0.124-0.279-0.278-0.279zM332.112 0.985v7.817c0 0.153 0.126 0.277 0.277 0.277 0.154 0 0.229-0.115 0.278-0.277 1.98-6.491 4.543-7.111 8.203-7.222h2.238v29.231h-3.93c-0.165 0-0.298 0.129-0.298 0.294 0 0.167 0.133 0.3 0.298 0.3h14.056c0.163 0 0.297-0.134 0.297-0.3 0-0.165-0.133-0.294-0.297-0.294h-3.931v-29.231h2.238c3.66 0.112 6.223 0.731 8.203 7.222 0.050 0.161 0.125 0.277 0.277 0.277s0.279-0.124 0.279-0.277v-7.817h-28.188zM136.602 0.985v7.817c0 0.153 0.126 0.277 0.277 0.277 0.154 0 0.229-0.115 0.278-0.277 1.98-6.491 4.543-7.111 8.203-7.222h2.238v29.231h-3.93c-0.165 0-0.297 0.129-0.297 0.294 0 0.167 0.133 0.3 0.297 0.3h14.056c0.163 0 0.297-0.134 0.297-0.3 0-0.165-0.133-0.294-0.297-0.294h-3.931v-29.231h2.238c3.66 0.112 6.224 0.731 8.203 7.222 0.050 0.161 0.125 0.277 0.277 0.277s0.279-0.124 0.279-0.277v-7.817h-28.187zM68.134 0.985v7.817c0 0.153 0.126 0.277 0.277 0.277 0.153 0 0.229-0.115 0.278-0.277 1.98-6.491 4.543-7.111 8.203-7.222h2.238v29.231h-3.93c-0.165 0-0.297 0.129-0.297 0.294 0 0.167 0.133 0.3 0.297 0.3h14.056c0.163 0 0.297-0.134 0.297-0.3 0-0.165-0.133-0.294-0.297-0.294h-3.931v-29.231h2.238c3.661 0.112 6.224 0.731 8.203 7.222 0.050 0.161 0.125 0.277 0.277 0.277s0.279-0.124 0.279-0.277v-7.817h-28.188zM231.703 0.985h-8.529c-0.164 0-0.297 0.135-0.297 0.3s0.134 0.296 0.297 0.296h3.88v20.045c0 0.428-0.015 0.96-0.043 1.6s-0.128 1.322-0.298 2.047c-0.172 0.726-0.441 1.45-0.81 2.174s-0.896 1.38-1.578 1.963c-0.683 0.583-1.542 1.051-2.581 1.406-1.038 0.356-2.325 0.534-3.86 0.534-1.564 0-2.808-0.306-3.732-0.918-0.924-0.61-1.62-1.414-2.090-2.409s-0.767-2.125-0.896-3.391c-0.128-1.265-0.192-2.564-0.192-3.902v-19.15h3.924c0.164 0 0.297-0.131 0.297-0.296s-0.133-0.3-0.297-0.3h-14.073c-0.164 0-0.298 0.135-0.298 0.3s0.134 0.296 0.298 0.296h3.966v19.917c0 1.28 0.141 2.545 0.426 3.796 0.284 1.252 0.875 2.367 1.771 3.348s2.182 1.777 3.86 2.388c1.677 0.612 3.895 0.918 6.653 0.918 1.707 0 3.141-0.191 4.308-0.575 1.166-0.385 2.132-0.882 2.9-1.493s1.35-1.301 1.748-2.069c0.398-0.768 0.696-1.535 0.896-2.303s0.313-1.498 0.341-2.197c0.028-0.696 0.043-1.271 0.043-1.727v-20.002h3.965c0.164 0 0.297-0.131 0.297-0.296s-0.133-0.299-0.297-0.299zM294.361 16.254c0 2.218 0.442 4.28 1.322 6.184s2.055 3.562 3.518 4.968c1.465 1.408 3.164 2.517 5.097 3.327s3.952 1.216 6.057 1.216c2.132 0 4.158-0.419 6.079-1.258 1.917-0.838 3.609-1.983 5.074-3.434s2.631-3.135 3.498-5.054 1.3-3.945 1.3-6.078c0-2.445-0.461-4.642-1.387-6.59-0.923-1.947-2.132-3.603-3.624-4.968s-3.198-2.417-5.118-3.156c-1.919-0.739-3.86-1.109-5.821-1.109-1.82 0-3.682 0.378-5.587 1.13-1.906 0.754-3.626 1.827-5.161 3.22-1.537 1.394-2.793 3.071-3.775 5.033s-1.472 4.152-1.472 6.568zM301.313 16.254c0-2.246 0.099-4.308 0.297-6.184 0.199-1.876 0.612-3.498 1.239-4.862 0.625-1.365 1.534-2.424 2.729-3.177 1.193-0.754 2.787-1.13 4.777-1.13 2.132 0 3.803 0.405 5.012 1.216 1.207 0.81 2.11 1.905 2.708 3.284s0.96 2.971 1.087 4.776c0.129 1.806 0.191 3.704 0.191 5.694 0 2.218-0.079 4.272-0.234 6.163s-0.534 3.525-1.13 4.904c-0.596 1.379-1.492 2.46-2.687 3.241s-2.844 1.173-4.948 1.173c-1.592 0-2.964-0.227-4.116-0.682s-2.089-1.258-2.815-2.41c-0.726-1.152-1.258-2.701-1.599-4.649-0.341-1.947-0.512-4.4-0.512-7.357zM30.383 16.254c0 2.218 0.442 4.28 1.322 6.184s2.055 3.562 3.519 4.968c1.465 1.408 3.164 2.517 5.097 3.327s3.952 1.216 6.057 1.216c2.133 0 4.158-0.419 6.079-1.258 1.917-0.838 3.609-1.983 5.074-3.434s2.631-3.135 3.498-5.054c0.868-1.919 1.3-3.945 1.3-6.078 0-2.445-0.461-4.642-1.387-6.59-0.923-1.947-2.132-3.603-3.624-4.968s-3.198-2.417-5.118-3.156c-1.919-0.739-3.86-1.109-5.821-1.109-1.82 0-3.682 0.378-5.587 1.13s-3.626 1.827-5.161 3.22c-1.537 1.394-2.793 3.071-3.774 5.033-0.983 1.962-1.473 4.152-1.473 6.568zM37.335 16.254c0-2.246 0.099-4.308 0.297-6.184 0.199-1.876 0.612-3.498 1.239-4.862 0.625-1.365 1.534-2.424 2.729-3.177 1.194-0.754 2.787-1.13 4.777-1.13 2.133 0 3.803 0.405 5.012 1.216 1.207 0.81 2.111 1.905 2.708 3.284s0.961 2.971 1.087 4.776c0.129 1.806 0.191 3.704 0.191 5.694 0 2.218-0.079 4.272-0.234 6.163s-0.534 3.525-1.13 4.904c-0.596 1.379-1.493 2.46-2.687 3.241-1.195 0.782-2.844 1.173-4.948 1.173-1.592 0-2.964-0.227-4.116-0.682s-2.089-1.258-2.815-2.41c-0.726-1.152-1.259-2.701-1.599-4.649-0.341-1.947-0.512-4.4-0.512-7.357zM460.036 22.182c-0.325-4.649-2.65-7.285-9.778-9.351-5.352-1.551-8.931-2.807-8.931-6.87 0-4.66 5.212-5.431 7.472-5.39 4.226 0.076 6.713 1.995 8.786 8.696 0.067 0.213 0.132 0.295 0.295 0.295s0.294-0.133 0.294-0.295v-8.606c0-0.2-0.161-0.361-0.362-0.361s-0.264 0.112-0.361 0.361c-0.153 0.36-0.252 0.953-1.269 0.953-0.987 0-3.476-1.614-7.337-1.614-7.89 0-10.53 5.014-10.53 8.671 0 4.434 2.44 7.777 8.99 9.723 7.252 2.154 8.801 3.422 8.801 6.43 0 1.421-0.838 7.474-9.732 6.488-2.535-0.281-6.642-3.051-7.871-9.394-0.039-0.2-0.144-0.321-0.32-0.321s-0.318 0.144-0.318 0.321v9.485c0 0.189 0.152 0.341 0.34 0.341s0.272-0.145 0.342-0.341c0.142-0.4 0.291-0.676 0.469-0.789 0.327-0.211 0.914-0.274 1.522-0.099 2.98 0.856 5.798 1.491 7.706 1.485 8.976-0.024 12.046-6.188 11.792-9.818zM193.85 22.182c-0.325-4.649-2.65-7.285-9.778-9.351-5.352-1.551-8.931-2.807-8.931-6.87 0-4.66 5.212-5.431 7.472-5.39 4.226 0.076 6.713 1.995 8.786 8.696 0.066 0.213 0.132 0.295 0.295 0.295s0.294-0.133 0.294-0.295v-8.606c0-0.2-0.161-0.361-0.362-0.361s-0.263 0.112-0.361 0.361c-0.153 0.36-0.252 0.953-1.269 0.953-0.987 0-3.476-1.614-7.337-1.614-7.89 0-10.53 5.014-10.53 8.671 0 4.434 2.44 7.777 8.99 9.723 7.252 2.154 8.801 3.422 8.801 6.43 0 1.421-0.837 7.474-9.732 6.488-2.535-0.281-6.642-3.051-7.871-9.394-0.039-0.2-0.144-0.321-0.32-0.321s-0.319 0.144-0.319 0.321v9.485c0 0.189 0.152 0.341 0.34 0.341s0.273-0.145 0.342-0.341c0.142-0.4 0.291-0.676 0.47-0.789 0.327-0.211 0.915-0.274 1.522-0.099 2.98 0.856 5.798 1.491 7.707 1.485 8.975-0.024 12.046-6.188 11.792-9.818zM22.172 22.182c-0.325-4.649-2.65-7.285-9.778-9.351-5.352-1.551-8.931-2.807-8.931-6.87 0-4.66 5.212-5.431 7.472-5.39 4.226 0.076 6.713 1.995 8.785 8.696 0.067 0.213 0.133 0.295 0.295 0.295s0.294-0.133 0.294-0.295v-8.606c0-0.2-0.162-0.361-0.362-0.361s-0.264 0.112-0.361 0.361c-0.153 0.36-0.252 0.953-1.268 0.953-0.987 0-3.476-1.614-7.337-1.614-7.89 0-10.53 5.014-10.53 8.671 0 4.434 2.439 7.777 8.99 9.723 7.252 2.154 8.801 3.422 8.801 6.43 0 1.421-0.837 7.474-9.732 6.488-2.535-0.281-6.642-3.051-7.871-9.394-0.039-0.2-0.144-0.321-0.32-0.321s-0.318 0.144-0.318 0.321v9.485c0 0.189 0.152 0.341 0.34 0.341s0.272-0.145 0.342-0.341c0.142-0.4 0.291-0.676 0.469-0.789 0.327-0.211 0.914-0.274 1.522-0.099 2.98 0.856 5.798 1.491 7.707 1.485 8.976-0.024 12.046-6.188 11.792-9.818z"></path>
</symbol>
<symbol id="icon-PO" viewBox="0 0 151 32">
<path fill="#000" style="fill: var(--color3, #000)" d="M27.915 2.241h-2.592v-2.11h7.425v2.11h-2.593v13.533h-2.241v-13.533zM33.935 0.131h2.241v6.701h2.768v-6.701h2.24v15.642h-2.24v-6.833h-2.768v6.833h-2.241v-15.642zM110.696 0.131h2.241v6.701h2.768v-6.701h2.24v15.642h-2.24v-6.833h-2.768v6.833h-2.241v-15.642zM43.162 0.131h6.678v2.11h-4.437v4.591h3.866v2.11h-3.866v4.592h4.437v2.241h-6.678v-15.643zM63.857 3.822c0-0.63 0.109-1.187 0.329-1.67s0.508-0.882 0.868-1.197c0.359-0.315 0.762-0.553 1.208-0.714s0.897-0.242 1.351-0.242c0.454 0 0.905 0.081 1.351 0.242s0.849 0.399 1.208 0.714c0.359 0.314 0.648 0.714 0.868 1.197s0.329 1.040 0.329 1.67v8.261c0 0.645-0.11 1.205-0.329 1.681s-0.509 0.871-0.868 1.186c-0.358 0.315-0.761 0.553-1.208 0.714s-0.897 0.242-1.351 0.242-0.905-0.081-1.351-0.242c-0.447-0.161-0.85-0.399-1.208-0.714s-0.648-0.711-0.868-1.186c-0.22-0.476-0.329-1.037-0.329-1.681v-8.261zM66.097 12.083c0 0.542 0.15 0.941 0.451 1.198s0.655 0.385 1.066 0.385 0.765-0.128 1.066-0.385c0.3-0.256 0.45-0.655 0.45-1.198v-8.261c0-0.541-0.15-0.941-0.45-1.198s-0.656-0.384-1.066-0.384c-0.41 0-0.766 0.128-1.066 0.384s-0.451 0.655-0.451 1.198v8.261zM80.269 12.281c0 0.484-0.092 0.945-0.275 1.384s-0.437 0.824-0.759 1.153c-0.322 0.329-0.699 0.593-1.132 0.792s-0.897 0.296-1.395 0.296c-0.425 0-0.857-0.059-1.296-0.176s-0.835-0.319-1.186-0.604c-0.352-0.286-0.641-0.662-0.868-1.131s-0.341-1.062-0.341-1.78v-8.613c0-0.513 0.088-0.989 0.264-1.428s0.424-0.82 0.747-1.142c0.322-0.322 0.707-0.574 1.153-0.758s0.942-0.275 1.483-0.275c0.513 0 0.989 0.092 1.428 0.274s0.82 0.439 1.142 0.769c0.322 0.329 0.574 0.725 0.759 1.186s0.275 0.963 0.275 1.505v0.879h-2.241v-0.747c0-0.439-0.125-0.82-0.373-1.142s-0.586-0.483-1.011-0.483c-0.556 0-0.926 0.172-1.109 0.516s-0.275 0.78-0.275 1.307v7.997c0 0.454 0.099 0.834 0.296 1.142s0.553 0.461 1.066 0.461c0.146 0 0.304-0.026 0.472-0.078 0.168-0.050 0.322-0.135 0.461-0.253s0.253-0.278 0.34-0.483 0.131-0.461 0.131-0.769v-0.769h2.241v0.967zM81.63 0.131h2.241v7.141h0.045l3.274-7.141h2.241l-3.054 6.261 3.625 9.381h-2.373l-2.548-6.942-1.208 2.262v4.679h-2.241v-15.641zM90.989 0.131h6.679v2.11h-4.438v4.591h3.867v2.11h-3.867v4.592h4.438v2.241h-6.679v-15.643zM101.513 2.241h-2.593v-2.11h7.426v2.11h-2.593v13.533h-2.24v-13.533zM119.593 3.822c0-0.63 0.11-1.187 0.329-1.67s0.509-0.882 0.868-1.197c0.358-0.315 0.761-0.553 1.208-0.714 0.446-0.161 0.896-0.242 1.351-0.242 0.453 0 0.904 0.081 1.351 0.242s0.849 0.399 1.208 0.714c0.359 0.314 0.649 0.714 0.868 1.197s0.329 1.040 0.329 1.67v8.261c0 0.645-0.11 1.205-0.329 1.681s-0.509 0.871-0.868 1.186-0.762 0.553-1.208 0.714c-0.447 0.161-0.897 0.242-1.351 0.242s-0.905-0.081-1.351-0.242c-0.447-0.161-0.849-0.399-1.208-0.714s-0.649-0.711-0.868-1.186c-0.22-0.476-0.329-1.037-0.329-1.681v-8.261zM121.834 12.083c0 0.542 0.15 0.941 0.45 1.198s0.655 0.385 1.066 0.385c0.409 0 0.765-0.128 1.065-0.385s0.451-0.655 0.451-1.198v-8.261c0-0.541-0.15-0.941-0.451-1.198s-0.655-0.384-1.065-0.384c-0.41 0-0.765 0.128-1.066 0.384s-0.45 0.655-0.45 1.198v8.261zM130.358 2.241h-2.593v-2.11h7.425v2.11h-2.593v13.533h-2.241v-13.533zM136.444 0.131h6.678v2.11h-4.438v4.591h3.866v2.11h-3.866v4.592h4.438v2.241h-6.678v-15.643zM144.638 0.131h2.241v13.401h4.438v2.241h-6.679v-15.642zM58.782 0.131h-3.406v15.642h2.241v-6.107h1.165c2.633 0 3.867-1.52 3.867-4.766 0-3.43-1.234-4.769-3.867-4.769zM58.782 7.557h-1.165v-5.316h1.165c1.468 0 1.757 1.192 1.757 2.659s-0.289 2.656-1.757 2.656z"></path>
<path fill="#b89300" style="fill: var(--color4, #b89300)" d="M0 0.131v15.643h2.241v-6.106c2.12 0 12.874 0 12.874 0 2.633 0 4.768-2.136 4.768-4.769s-2.134-4.768-4.768-4.768h-15.115zM14.984 7.557h-12.743v-5.316h12.743c1.468 0 2.658 1.191 2.658 2.659 0 1.469-1.19 2.658-2.658 2.658z"></path>
<path fill="#000" style="fill: var(--color3, #000)" d="M77.292 25.195h-1.291v-1.051h3.698v1.051h-1.291v6.739h-1.116v-6.739zM86.117 31.934h1.116v-6.739h1.291v-1.051h-3.698v1.051h1.291v6.739zM71.543 30.097c0 0.321 0.054 0.6 0.164 0.837s0.253 0.434 0.433 0.591c0.178 0.157 0.379 0.276 0.602 0.356s0.447 0.12 0.673 0.12 0.451-0.040 0.673-0.12c0.222-0.080 0.423-0.199 0.602-0.356s0.323-0.354 0.433-0.591c0.109-0.237 0.164-0.516 0.164-0.837v-4.114c0-0.314-0.054-0.591-0.164-0.831s-0.253-0.439-0.433-0.596c-0.178-0.157-0.379-0.276-0.602-0.356s-0.447-0.12-0.673-0.12c-0.226 0-0.451 0.040-0.673 0.12s-0.423 0.199-0.602 0.356c-0.179 0.157-0.323 0.356-0.433 0.596s-0.164 0.518-0.164 0.831v4.114zM72.659 25.983c0-0.27 0.075-0.469 0.225-0.596s0.326-0.192 0.531-0.192c0.204 0 0.381 0.064 0.531 0.192s0.225 0.327 0.225 0.596v4.114c0 0.27-0.075 0.469-0.225 0.596s-0.327 0.192-0.531 0.192-0.381-0.064-0.531-0.192c-0.149-0.128-0.225-0.326-0.225-0.596v-4.114zM80.613 31.934h3.326v-1.116h-2.21v-2.286h1.926v-1.051h-1.926v-2.286h2.21v-1.051h-3.326v7.79zM70.502 25.841c0-0.219-0.044-0.433-0.131-0.64s-0.213-0.395-0.377-0.564c-0.164-0.168-0.361-0.303-0.591-0.404s-0.483-0.154-0.76-0.154c-0.321 0-0.602 0.057-0.843 0.169s-0.439 0.264-0.596 0.454-0.276 0.416-0.356 0.678c-0.080 0.262-0.121 0.54-0.121 0.831 0 0.489 0.082 0.896 0.246 1.22s0.487 0.585 0.968 0.782l0.799 0.329c0.139 0.059 0.25 0.113 0.333 0.164s0.149 0.116 0.197 0.197c0.047 0.080 0.078 0.186 0.093 0.317s0.022 0.299 0.022 0.503c0 0.175-0.007 0.336-0.022 0.481s-0.050 0.268-0.104 0.366-0.135 0.175-0.241 0.229c-0.106 0.054-0.253 0.082-0.443 0.082-0.285 0-0.487-0.082-0.608-0.246s-0.181-0.348-0.181-0.552v-0.35h-1.116v0.416c0 0.262 0.050 0.507 0.148 0.733s0.231 0.421 0.4 0.585c0.168 0.164 0.368 0.294 0.602 0.389s0.484 0.142 0.754 0.142c0.357 0 0.66-0.059 0.908-0.175s0.447-0.275 0.596-0.476c0.149-0.201 0.257-0.442 0.323-0.722s0.098-0.585 0.098-0.914c0-0.285-0.015-0.538-0.044-0.76s-0.086-0.419-0.169-0.591c-0.084-0.171-0.202-0.321-0.356-0.448s-0.354-0.239-0.602-0.333l-0.853-0.339c-0.146-0.059-0.261-0.116-0.345-0.175s-0.148-0.125-0.192-0.202c-0.044-0.077-0.071-0.168-0.082-0.273s-0.016-0.235-0.016-0.389c0-0.131 0.011-0.258 0.033-0.377s0.060-0.226 0.115-0.317 0.131-0.166 0.229-0.224c0.098-0.059 0.225-0.087 0.377-0.087 0.285 0 0.487 0.093 0.608 0.279s0.181 0.407 0.181 0.662v0.252h1.116v-0.548zM92.93 25.841c0-0.219-0.044-0.433-0.131-0.64s-0.213-0.395-0.377-0.564c-0.164-0.168-0.361-0.303-0.591-0.404s-0.483-0.154-0.76-0.154c-0.321 0-0.602 0.057-0.843 0.169s-0.439 0.264-0.596 0.454-0.276 0.416-0.356 0.678c-0.080 0.262-0.121 0.54-0.121 0.831 0 0.489 0.082 0.896 0.246 1.22s0.487 0.585 0.968 0.782l0.799 0.329c0.139 0.059 0.25 0.113 0.333 0.164s0.149 0.116 0.197 0.197c0.047 0.080 0.078 0.186 0.093 0.317s0.022 0.299 0.022 0.503c0 0.175-0.007 0.336-0.022 0.481s-0.050 0.268-0.104 0.366-0.135 0.175-0.241 0.229c-0.106 0.054-0.253 0.082-0.443 0.082-0.285 0-0.487-0.082-0.608-0.246s-0.181-0.348-0.181-0.552v-0.35h-1.116v0.416c0 0.262 0.050 0.507 0.148 0.733s0.231 0.421 0.4 0.585c0.168 0.164 0.368 0.294 0.602 0.389s0.484 0.142 0.754 0.142c0.357 0 0.66-0.059 0.908-0.175s0.447-0.275 0.596-0.476c0.149-0.201 0.257-0.442 0.323-0.722s0.098-0.585 0.098-0.914c0-0.285-0.015-0.538-0.044-0.76s-0.086-0.419-0.17-0.591c-0.084-0.171-0.202-0.321-0.356-0.448s-0.354-0.239-0.602-0.333l-0.853-0.339c-0.146-0.059-0.261-0.116-0.345-0.175s-0.148-0.125-0.192-0.202c-0.044-0.077-0.071-0.168-0.082-0.273s-0.016-0.235-0.016-0.389c0-0.131 0.011-0.258 0.033-0.377s0.060-0.226 0.115-0.317 0.131-0.166 0.229-0.224c0.098-0.059 0.225-0.087 0.377-0.087 0.285 0 0.487 0.093 0.608 0.279s0.181 0.407 0.181 0.662v0.252h1.116v-0.548zM97.575 24.145h-1.116v5.93c0 0.277-0.066 0.481-0.197 0.612s-0.296 0.197-0.492 0.197c-0.197 0-0.361-0.066-0.492-0.197s-0.197-0.335-0.197-0.612v-5.93h-1.116v6.039c0 0.255 0.047 0.492 0.142 0.712s0.225 0.41 0.389 0.574 0.356 0.294 0.574 0.389c0.219 0.095 0.452 0.142 0.7 0.142s0.481-0.048 0.7-0.142c0.219-0.095 0.41-0.224 0.574-0.389s0.294-0.356 0.389-0.574c0.095-0.219 0.142-0.456 0.142-0.712v-6.039zM56.427 31.934h1.52c0.729 0 1.26-0.182 1.592-0.547s0.498-0.89 0.498-1.576v-0.437c0-0.409-0.062-0.735-0.186-0.979s-0.317-0.428-0.579-0.552c0.124-0.073 0.234-0.151 0.328-0.235s0.175-0.181 0.241-0.29c0.066-0.11 0.115-0.237 0.148-0.383s0.050-0.324 0.050-0.536v-0.285c0-0.255-0.035-0.501-0.104-0.739s-0.184-0.447-0.345-0.629c-0.16-0.182-0.366-0.328-0.618-0.437s-0.556-0.164-0.914-0.164h-1.63v7.789zM57.543 25.195h0.46c0.372 0 0.629 0.087 0.771 0.262s0.214 0.437 0.214 0.787c0 0.357-0.064 0.629-0.191 0.815s-0.377 0.279-0.749 0.279h-0.504v-2.144zM57.543 28.324h0.492c0.204 0 0.368 0.026 0.492 0.077s0.22 0.125 0.29 0.224c0.069 0.098 0.115 0.22 0.137 0.366s0.033 0.317 0.033 0.514c0 0.19-0.007 0.365-0.022 0.525s-0.054 0.299-0.12 0.416c-0.066 0.116-0.163 0.208-0.29 0.273s-0.305 0.098-0.531 0.098h-0.481v-2.494zM61.986 31.934h1.116v-3.293l1.532-4.497h-1.182l-0.897 3.096h-0.021l-0.897-3.096h-1.182l1.532 4.497v3.293z"></path>
</symbol>
<symbol id="icon-SP" viewBox="0 0 364 32">
<path d="M101.769 22.003v9.335h-26.681c-0.163 0-0.296-0.134-0.296-0.299s0.133-0.294 0.296-0.294h3.922v-29.161h-3.922c-0.163 0-0.296-0.133-0.296-0.297 0-0.166 0.133-0.296 0.296-0.296h26.046v7.286c0 0.153-0.124 0.278-0.277 0.278s-0.223-0.103-0.277-0.278c-0.143-0.483-0.383-1.1-0.724-1.854s-0.816-1.485-1.427-2.196-1.399-1.328-2.366-1.853c-0.966-0.526-2.146-0.79-3.537-0.79h-7.333v13.983h2.942c1.051 0 1.94-0.15 2.664-0.447 0.724-0.3 1.328-0.724 1.811-1.279s0.88-1.221 1.193-2.003 0.568-1.655 0.767-2.621c0.040-0.188 0.124-0.278 0.277-0.278s0.277 0.125 0.277 0.278v13.255c0 0.154-0.125 0.277-0.277 0.277s-0.229-0.069-0.277-0.277c-0.199-0.823-0.433-1.62-0.703-2.386-0.27-0.767-0.633-1.442-1.087-2.025s-1.016-1.044-1.684-1.385c-0.669-0.341-1.499-0.511-2.494-0.511h-3.412v14.58h6.434c1.308 0 2.487-0.224 3.538-0.666 1.051-0.44 1.982-1.059 2.791-1.854 0.811-0.795 1.485-1.726 2.025-2.791 0.538-1.066 0.952-2.21 1.236-3.431 0.046-0.188 0.124-0.277 0.277-0.277s0.277 0.123 0.277 0.276zM67.716 1.586c0.164 0 0.297-0.131 0.297-0.295s-0.133-0.299-0.297-0.299h-14.022c-0.164 0-0.296 0.134-0.296 0.299s0.132 0.295 0.296 0.295h3.92v13.983h-12.317v-13.983h3.921c0.164 0 0.297-0.131 0.297-0.295s-0.133-0.299-0.297-0.299h-14.022c-0.164 0-0.298 0.134-0.298 0.299s0.134 0.295 0.298 0.295h3.921v29.161l-3.921 0.002c-0.163 0.003-0.294 0.13-0.294 0.293 0 0.166 0.134 0.3 0.298 0.3 0.003 0 0.007-0.001 0.010-0.001h14.008c0.164 0 0.297-0.134 0.297-0.3 0-0.164-0.133-0.294-0.297-0.294h-3.921v-14.583h12.317v14.582h-3.92c-0.163 0-0.296 0.129-0.296 0.294s0.133 0.3 0.296 0.3h14.022c0.163 0 0.297-0.134 0.297-0.3 0-0.164-0.133-0.294-0.297-0.294h-3.921v-29.16h3.921zM216.569 21.427c-0.154 0-0.228 0.068-0.277 0.278-0.368 1.647-0.888 3.046-1.555 4.195-0.668 1.154-1.421 2.092-2.26 2.815-0.837 0.724-1.732 1.244-2.685 1.554-0.951 0.315-1.896 0.475-2.833 0.475h-7.033v-29.16h3.921c0.163 0 0.296-0.131 0.296-0.295s-0.133-0.299-0.296-0.299h-14.023c-0.163 0-0.296 0.134-0.296 0.299s0.134 0.295 0.296 0.295h3.922v29.161h-3.922c-0.163 0-0.296 0.129-0.296 0.294s0.134 0.3 0.296 0.3h27.022v-9.633c0-0.154-0.124-0.279-0.277-0.279zM274.222 1.585c0.164 0 0.297-0.131 0.297-0.295s-0.133-0.299-0.297-0.299h-14.023c-0.163 0-0.296 0.134-0.296 0.299s0.134 0.295 0.296 0.295h3.921v29.161h-3.921c-0.163 0-0.296 0.129-0.296 0.294s0.134 0.3 0.296 0.3h14.023c0.164 0 0.296-0.134 0.296-0.3 0-0.164-0.132-0.294-0.296-0.294h-3.921v-29.161h3.921zM326.519 1.585c0.163 0 0.297-0.131 0.297-0.295s-0.133-0.299-0.297-0.299h-14.023c-0.163 0-0.296 0.134-0.296 0.299s0.134 0.295 0.296 0.295h3.921v29.161h-3.921c-0.163 0-0.296 0.129-0.296 0.294s0.134 0.3 0.296 0.3h14.023c0.164 0 0.296-0.134 0.296-0.3 0-0.164-0.132-0.294-0.296-0.294h-3.921v-29.161h3.921zM0 8.79c0 0.153 0.125 0.275 0.277 0.275 0.154 0 0.228-0.114 0.277-0.275 1.975-6.475 4.532-7.094 8.183-7.206h2.232v29.161h-3.921c-0.164 0-0.297 0.129-0.297 0.294s0.133 0.3 0.297 0.3h14.023c0.163 0 0.296-0.134 0.296-0.3 0-0.164-0.133-0.294-0.296-0.294h-3.922v-29.161h2.232c3.652 0.111 6.208 0.729 8.183 7.205 0.050 0.161 0.124 0.275 0.276 0.275s0.279-0.124 0.279-0.275v-7.797h-28.119v7.798zM255.012 31.039c0 0.166-0.133 0.3-0.295 0.3h-13.951c-0.165 0-0.297-0.134-0.297-0.3 0-0.164 0.132-0.294 0.297-0.294h3.965l-4.944-10.834h-10.23l-4.73 10.834h3.791c0.163 0 0.295 0.129 0.295 0.294 0 0.166-0.133 0.3-0.295 0.3h-8.054c-0.165 0-0.297-0.134-0.297-0.3 0-0.164 0.132-0.294 0.297-0.294h3.579l12.703-30.355c0.083-0.199 0.175-0.39 0.391-0.39s0.303 0.193 0.391 0.39l13.425 30.355h3.666c0.163 0 0.295 0.129 0.295 0.294zM239.572 19.314l-5.029-11.637-4.775 11.637h9.804zM184.183 8.169c0.043 2.703-1.686 5.83-7.507 7.355-2.993 0.784-8.846 0.64-8.846 0.64v14.582h3.922c0.163 0 0.296 0.129 0.296 0.294s-0.133 0.299-0.296 0.299h-14.023c-0.164 0-0.296-0.134-0.296-0.299s0.132-0.294 0.296-0.294h3.922v-29.161h-3.916c-0.002 0-0.003 0.001-0.005 0.001-0.164 0-0.296-0.132-0.296-0.295s0.132-0.298 0.296-0.298v0c0 0 5.736 0.007 7.186 0 2.081-0.011 3.686-0.056 6.177-0.132 4.569-0.14 12.98 0.529 13.089 7.308zM177.188 8.365c-0.015-4.851-1.478-6.832-7.402-6.832-0.313 0-1.722 0.045-1.955 0.052v13.982h2.494c4.187 0.001 6.88-1.435 6.863-7.202zM140.561 12.81c-5.339-1.547-8.911-2.8-8.911-6.855 0-4.648 5.2-5.417 7.454-5.378 4.215 0.076 6.697 1.991 8.765 8.675 0.066 0.212 0.133 0.295 0.294 0.295 0.163 0 0.293-0.133 0.293-0.295v-8.585c0-0.199-0.161-0.36-0.361-0.36s-0.263 0.112-0.36 0.36c-0.152 0.359-0.251 0.951-1.265 0.951-0.984 0-3.468-1.61-7.319-1.61-7.871 0-10.505 5.003-10.505 8.651 0 4.423 2.434 7.759 8.969 9.699 7.235 2.149 8.78 3.414 8.78 6.415 0 1.418-0.836 7.456-9.708 6.472-2.528-0.28-6.626-3.044-7.852-9.372-0.039-0.2-0.143-0.32-0.32-0.32s-0.318 0.144-0.318 0.32v9.463c0 0.188 0.151 0.34 0.339 0.34s0.272-0.145 0.341-0.34c0.142-0.399 0.29-0.675 0.468-0.787 0.326-0.211 0.913-0.274 1.518-0.099 2.973 0.855 5.783 1.488 7.688 1.481 8.955-0.024 12.017-6.173 11.765-9.794-0.323-4.637-2.642-7.266-9.753-9.328zM295.113 12.81c-5.339-1.547-8.911-2.8-8.911-6.855 0-4.648 5.2-5.417 7.454-5.378 4.215 0.076 6.697 1.991 8.765 8.675 0.066 0.212 0.133 0.295 0.294 0.295 0.163 0 0.293-0.133 0.293-0.295v-8.585c0-0.199-0.161-0.36-0.361-0.36s-0.263 0.112-0.36 0.36c-0.152 0.359-0.251 0.951-1.265 0.951-0.984 0-3.467-1.61-7.319-1.61-7.871 0-10.505 5.003-10.505 8.651 0 4.423 2.434 7.759 8.969 9.699 7.235 2.149 8.78 3.414 8.78 6.415 0 1.418-0.836 7.456-9.708 6.472-2.529-0.28-6.626-3.044-7.852-9.372-0.039-0.2-0.143-0.32-0.32-0.32s-0.318 0.144-0.318 0.32v9.463c0 0.188 0.151 0.34 0.339 0.34s0.272-0.145 0.341-0.34c0.142-0.399 0.29-0.675 0.468-0.787 0.326-0.211 0.913-0.274 1.518-0.099 2.973 0.855 5.783 1.488 7.688 1.481 8.955-0.024 12.017-6.173 11.764-9.794-0.322-4.637-2.64-7.266-9.752-9.328zM364.24 30.066c0.073 0.128 0.005 0.296-0.122 0.379-1.598 1.053-3.333 1.555-5.161 1.555-1.826 0-3.333-0.732-4.384-2.1-1.507-2.009-1.234-4.613-1.415-7.764-0.321-4.841-2.815-5.973-7.978-5.973-0.299 0-1.234 0-1.234 0v14.582h3.922c0.163 0 0.296 0.129 0.296 0.294s-0.133 0.299-0.296 0.299h-14.023c-0.164 0-0.296-0.134-0.296-0.299s0.132-0.294 0.296-0.294h3.922v-29.16h-3.918c-0.001 0-0.002 0-0.003 0-0.164 0-0.296-0.132-0.296-0.295s0.132-0.298 0.296-0.298v0c0 0 5.736 0.007 7.186 0 2.081-0.011 3.686-0.056 6.177-0.132 4.569-0.14 12.981 0.529 13.090 7.308 0.043 2.703-1.687 5.83-7.507 7.355-0.46 0.12-0.988 0.247-1.554 0.304-0.061 0.006-0.111 0.048-0.111 0.11s0.051 0.107 0.111 0.112c5.664 0.502 8.404 2.387 8.723 7.636 0.275 4.386-0.046 6.718 2.466 6.718 0.366 0 0.87-0.186 1.416-0.458 0.137-0.065 0.324-0.019 0.395 0.12zM343.947 15.568h2.494c4.187 0 6.88-1.436 6.863-7.202-0.015-4.851-1.478-6.832-7.402-6.832-0.313 0-1.723 0.046-1.955 0.052v13.982z"></path>
</symbol>
<symbol id="icon-SR" viewBox="0 0 249 32">
<path fill="#ba0069" style="fill: var(--color5, #ba0069)" d="M0.002 6.274l0.002 10.053c2.033-0.329 6.171-0.936 10.062-1.133-3.766-3.636-7.958-7.175-10.065-8.919z"></path>
<path fill="#ba0069" style="fill: var(--color5, #ba0069)" d="M11.253 3.849c-0.867 0.035-1.543 0.097-1.543 0.097l2.695-3.657 2.688 3.657c0 0-0.678-0.062-1.542-0.094v9.747c4.834-4.648 10.287-9.093 11.234-9.86 0-1.183 0-1.925 0-1.925s-0.042-0.272-0.196-0.461c-0.163-0.192-0.44-0.259-0.44-0.259s-3.419-1.094-11.723-1.094c-8.371 0-11.793 1.114-11.793 1.114s-0.271 0.063-0.435 0.258c-0.153 0.185-0.196 0.459-0.196 0.459l0.002 1.899c0.915 0.74 6.395 5.205 11.251 9.873v-9.755z"></path>
<path fill="#ba0069" style="fill: var(--color5, #ba0069)" d="M24.785 16.234c0-2.833 0-6.871 0-9.952-2.108 1.743-6.293 5.278-10.050 8.907 3.734 0.177 7.809 0.716 10.050 1.045z"></path>
<path fill="#ba0069" style="fill: var(--color5, #ba0069)" d="M11.253 32v-13.271c-3.431 3.673-6.488 7.474-7.95 9.341 2.047 2.21 4.766 3.675 7.95 3.93z"></path>
<path fill="#ba0069" style="fill: var(--color5, #ba0069)" d="M22.738 26.469c1.293-1.955 2.046-4.295 2.046-6.809 0-0.004 0-0.538 0-1.424-0.105-0.020-0.224-0.043-0.357-0.065-2.192-0.317-6.105-0.829-9.656-1.009 3.343 3.559 6.355 7.263 7.966 9.306z"></path>
<path fill="#ba0069" style="fill: var(--color5, #ba0069)" d="M13.551 31.998c3.179-0.263 5.892-1.726 7.938-3.935-1.465-1.869-4.515-5.661-7.938-9.325v13.26z"></path>
<path fill="#ba0069" style="fill: var(--color5, #ba0069)" d="M8.152 17.3c-3.344 0.276-6.608 0.773-8.147 1.023v1.337c0 2.517 0.753 4.859 2.046 6.816 1.608-2.035 4.606-5.727 7.939-9.279-0.627 0.028-1.243 0.060-1.838 0.102z"></path>
<path fill="#333" style="fill: var(--color6, #333)" d="M120.578 21.946c0.557 1.176 1.82 2.631 3.995 2.631 2.245 0 3.613-1.65 3.613-3.668 0-4.653-7.961-2.649-7.961-8.595 0-2.81 2.118-4.78 5.481-4.78 1.6 0 2.736 0.382 3.747 1.184-0.304 0.585-0.484 1.17-0.681 2.127h-0.307c-0.352-0.942-1.109-2.372-3.003-2.372-1.904 0-3.269 1.293-3.269 3.132 0 4.728 7.959 2.763 7.959 8.338 0 3.087-2.3 5.69-6.19 5.69-2.099 0-3.283-0.735-4.167-1.44 0.3-0.782 0.375-1.299 0.48-2.248h0.303z"></path>
<path fill="#333" style="fill: var(--color6, #333)" d="M146.149 7.865c0.331 0.075 0.688 0.127 1.038 0.127 0.253 0 0.532-0.051 0.759-0.127-0.201 2.356-0.401 6.802-0.453 10.485-0.053 4.474-2.654 7.283-7.201 7.283-5.012 0-7.235-2.319-7.235-7.226 0-1.566 0.133-2.736 0.133-3.999 0-2.775-0.101-5.071-0.154-6.543 0.409 0.075 0.91 0.127 1.317 0.127 0.352 0 0.759-0.051 1.080-0.127-0.154 1.489-0.301 4.926-0.301 8.67 0 3.433 0 7.908 5.634 7.908 5.537 0 5.537-5.188 5.537-8.362-0.002-4.8-0.002-7.227-0.153-8.216z"></path>
<path fill="#333" style="fill: var(--color6, #333)" d="M165.101 25.634c-3.841-4.521-8.436-9.377-12.757-13.973-0.033 0.936-0.075 2.445-0.075 5.123 0 2.182 0.099 7.505 0.22 8.52-0.276-0.072-0.574-0.125-0.879-0.125-0.303 0-0.601 0.054-0.939 0.125 0.207-1.19 0.532-7.658 0.532-10.989 0-3.19 0-5.644-0.073-6.78h0.409c4.113 4.475 9.703 10.566 12.785 13.677 0-4.526 0-9.455-0.206-13.346 0.281 0.075 0.581 0.127 0.86 0.127 0.281 0 0.537-0.051 0.81-0.127-0.15 1.489-0.403 6.503-0.403 8.468 0 2.574 0.047 8.158 0.073 9.301h-0.357z"></path>
<path fill="#333" style="fill: var(--color6, #333)" d="M170.551 14.409c0-2.168-0.104-4.367-0.204-6.543 0.956 0.075 1.916 0.127 2.878 0.127s1.922-0.127 2.881-0.127c2.86 0 5.265 0.989 5.265 4.002 0 3.255-3.271 4.571-5.179 4.819 1.227 1.541 5.458 6.976 6.921 8.617-0.504-0.072-1.009-0.125-1.518-0.125-0.48 0-0.981 0.054-1.463 0.125-1.019-1.542-4.377-6.194-6.546-8.398h-0.966v1.853c0 2.176 0.107 4.364 0.207 6.545-0.436-0.072-0.836-0.125-1.243-0.125-0.405 0-0.809 0.054-1.234 0.125 0.1-2.181 0.204-4.369 0.204-6.545v-4.35zM172.618 15.852c0.452 0.099 1.041 0.122 1.695 0.122 2.068 0 4.827-0.852 4.827-3.867 0-2.65-2.199-3.301-3.917-3.301-1.163 0-1.922 0.074-2.451 0.125-0.079 1.839-0.154 3.666-0.154 5.478v1.443z"></path>
<path fill="#333" style="fill: var(--color6, #333)" d="M192.749 7.534c5.59 0 9.479 3.311 9.479 9.046 0 5.755-3.888 9.054-9.479 9.054-5.56 0-9.452-3.299-9.452-9.054-0.001-5.735 3.893-9.046 9.452-9.046zM192.749 8.473c-3.948 0-6.976 2.499-6.976 8.107 0 5.615 3.029 8.115 6.976 8.115 3.97 0 6.999-2.499 6.999-8.115 0-5.608-3.029-8.107-6.999-8.107z"></path>
<path fill="#333" style="fill: var(--color6, #333)" d="M219.041 7.865c0.33 0.075 0.681 0.127 1.035 0.127 0.253 0 0.536-0.051 0.757-0.127-0.197 2.356-0.404 6.802-0.455 10.485-0.049 4.474-2.657 7.283-7.202 7.283-5.006 0-7.231-2.319-7.231-7.226 0-1.566 0.125-2.736 0.125-3.999 0-2.775-0.101-5.071-0.145-6.543 0.402 0.075 0.904 0.127 1.312 0.127 0.352 0 0.759-0.051 1.087-0.127-0.154 1.489-0.301 4.926-0.301 8.67 0 3.433 0 7.908 5.637 7.908 5.536 0 5.536-5.188 5.536-8.362-0.001-4.8-0.001-7.227-0.155-8.216z"></path>
<path fill="#333" style="fill: var(--color6, #333)" d="M229.283 14.088c0-1.742-0.031-3.484-0.076-5.227-1.749 0-3.994 0.103-5.415 0.277 0.076-0.254 0.126-0.531 0.126-0.815 0-0.253-0.050-0.499-0.126-0.778 2.173 0.075 4.347 0.125 6.516 0.125 2.184 0 4.353-0.050 6.53-0.125-0.073 0.281-0.131 0.526-0.131 0.807 0 0.255 0.058 0.532 0.131 0.787-1.423-0.173-3.668-0.277-5.417-0.277-0.044 1.743-0.072 3.486-0.072 5.227v4.347c0 2.177 0.105 4.367 0.201 6.545-0.43-0.067-0.83-0.128-1.242-0.128-0.405 0-0.804 0.062-1.232 0.128 0.097-2.177 0.207-4.367 0.207-6.545v-4.348z"></path>
<path fill="#333" style="fill: var(--color6, #333)" d="M239.822 14.068c0-2.178-0.101-4.382-0.199-6.525 1.51 0.075 3.011 0.125 4.52 0.125 1.52 0 3.005-0.050 4.497-0.125-0.048 0.253-0.067 0.5-0.067 0.756s0.019 0.507 0.067 0.761c-2.125-0.152-3.35-0.329-6.642-0.329-0.022 1.092-0.099 1.974-0.099 3.212 0 1.318 0.024 2.703 0.024 3.34 2.979 0 4.651-0.125 6.139-0.259-0.046 0.259-0.074 0.528-0.074 0.78 0 0.259 0.028 0.508 0.074 0.766-1.745-0.18-4.926-0.231-6.139-0.231-0.024 0.605-0.024 1.241-0.024 3.668 0 1.917 0.024 3.16 0.052 3.783 2.247 0 5.227-0.024 6.816-0.324-0.045 0.23-0.075 0.56-0.075 0.788 0 0.224 0.031 0.494 0.075 0.726-1.487-0.067-2.998-0.128-4.548-0.128-1.539 0-3.058 0.062-4.597 0.128 0.098-2.201 0.199-4.391 0.199-6.569v-4.343z"></path>
<path fill="#333" style="fill: var(--color6, #333)" d="M48.868 14.088c0-2.168-0.105-4.366-0.212-6.545 0.434 0.075 0.835 0.125 1.249 0.125 0.398 0 0.811-0.050 1.235-0.125-0.1 2.178-0.199 4.376-0.199 6.545v4.347c0 2.177 0.099 4.367 0.199 6.545-0.423-0.067-0.836-0.128-1.235-0.128-0.414 0-0.815 0.062-1.249 0.128 0.107-2.177 0.212-4.367 0.212-6.545v-2.271c-1.776-0.028-3.518-0.051-5.288-0.051s-3.513 0.024-5.284 0.051v2.271c0 2.177 0.102 4.367 0.203 6.545-0.43-0.067-0.83-0.128-1.235-0.128s-0.805 0.062-1.244 0.128c0.107-2.177 0.201-4.367 0.201-6.545v-4.347c0-2.168-0.094-4.366-0.201-6.545 0.438 0.075 0.839 0.125 1.244 0.125s0.805-0.050 1.235-0.125c-0.102 2.178-0.203 4.376-0.203 6.545v0.888c1.771 0.028 3.514 0.075 5.284 0.075s3.513-0.048 5.288-0.075v-0.888z"></path>
<path fill="#333" style="fill: var(--color6, #333)" d="M63.074 7.21c5.59 0 9.482 3.313 9.482 9.046 0 5.751-3.893 9.053-9.482 9.053-5.557 0-9.453-3.302-9.453-9.053 0-5.733 3.896-9.046 9.453-9.046zM63.074 8.146c-3.941 0-6.977 2.503-6.977 8.11 0 5.618 3.036 8.113 6.977 8.113 3.968 0 7.001-2.495 7.001-8.113-0.001-5.607-3.034-8.11-7.001-8.11z"></path>
<path fill="#333" style="fill: var(--color6, #333)" d="M78.327 14.088c0-1.742-0.031-3.484-0.077-5.227-1.748 0-4.002 0.103-5.409 0.277 0.073-0.254 0.129-0.531 0.129-0.815 0-0.253-0.056-0.499-0.129-0.778 2.182 0.075 4.345 0.125 6.521 0.125 2.173 0 4.349-0.050 6.525-0.125-0.075 0.281-0.133 0.526-0.133 0.807 0 0.255 0.057 0.532 0.133 0.787-1.421-0.173-3.67-0.277-5.411-0.277-0.049 1.743-0.077 3.486-0.077 5.227v4.347c0 2.177 0.101 4.367 0.2 6.545-0.431-0.067-0.835-0.128-1.236-0.128-0.405 0-0.804 0.062-1.236 0.128 0.102-2.177 0.201-4.367 0.201-6.545v-4.348z"></path>
<path fill="#333" style="fill: var(--color6, #333)" d="M88.873 14.068c0-2.178-0.104-4.382-0.21-6.525 1.524 0.075 3.013 0.125 4.53 0.125 1.519 0 3.011-0.050 4.499-0.125-0.049 0.253-0.078 0.5-0.078 0.756s0.030 0.507 0.078 0.761c-2.125-0.152-3.359-0.329-6.647-0.329-0.022 1.092-0.107 1.974-0.107 3.212 0 1.318 0.031 2.703 0.031 3.34 2.984 0 4.654-0.125 6.148-0.259-0.049 0.259-0.082 0.528-0.082 0.78 0 0.259 0.033 0.508 0.082 0.766-1.746-0.18-4.936-0.231-6.148-0.231-0.031 0.605-0.031 1.241-0.031 3.668 0 1.917 0.031 3.16 0.061 3.783 2.248 0 5.228-0.024 6.818-0.324-0.047 0.23-0.064 0.56-0.064 0.788 0 0.224 0.017 0.494 0.064 0.726-1.488-0.067-3-0.128-4.547-0.128-1.543 0-3.061 0.062-4.606 0.128 0.106-2.201 0.21-4.391 0.21-6.569v-4.343z"></path>
<path fill="#333" style="fill: var(--color6, #333)" d="M101.52 14.088c0-2.168-0.105-4.366-0.206-6.545 0.437 0.075 0.829 0.125 1.245 0.125 0.398 0 0.803-0.050 1.233-0.125-0.1 2.178-0.204 4.376-0.204 6.545 0 4.25 0.050 7.226 0.071 9.701 2.382 0 4.45 0 6.98-0.324-0.072 0.253-0.123 0.501-0.123 0.764 0 0.248 0.051 0.494 0.123 0.749-1.54-0.067-3.106-0.128-4.65-0.128-1.569 0-3.105 0.062-4.675 0.128 0.101-2.177 0.206-4.367 0.206-6.545v-4.347z"></path>
</symbol>
</defs>
</svg>
