<?xml version="1.0" encoding="iso-8859-1"?>
<!-- Generator: Adobe Illustrator 25.0.1, SVG Export Plug-In . SVG Version: 6.00 Build 0)  -->
<svg version="1.1" id="&#x30EC;&#x30A4;&#x30E4;_xFF0D__1"
	 xmlns="http://www.w3.org/2000/svg" xmlns:xlink="http://www.w3.org/1999/xlink" x="0px" y="0px" viewBox="0 0 728.331 92.595"
	 style="enable-background:new 0 0 728.331 92.595;" xml:space="preserve">
<g>
	<g>
		<g>
			<path style="fill:#007082;" d="M5.157,71.32c-2.369,0-3.861-0.815-4.397-1.157C0.423,69.473,0.053,67.25,0,65.779
				c0.138-0.222,0.561-0.281,0.674-0.094c0.424,1.596,1.579,4.665,4.851,4.665c2.364,0,3.521-1.724,3.521-3.6
				c0-1.379-0.254-2.912-2.31-4.386l-2.679-1.941c-1.409-1.034-3.046-2.818-3.046-5.387c0-2.976,2.087-5.387,5.75-5.387
				c0.874,0,1.89,0.158,2.622,0.408c0.367,0.093,0.761,0.187,0.987,0.187c0.255,0.752,0.507,2.507,0.507,3.82
				c-0.113,0.188-0.562,0.281-0.704,0.094c-0.367-1.5-1.128-3.538-3.833-3.538c-2.761,0-3.354,2.038-3.354,3.478
				c0,1.815,1.353,3.099,2.396,3.852l2.253,1.565c1.775,1.221,3.524,3.038,3.524,6.012C11.161,68.972,8.82,71.32,5.157,71.32z"/>
			<path style="fill:#007082;" d="M34.985,70.351c-5.553,0-7.58-6.013-7.58-10.647c0-6.859,3.803-9.083,6.733-9.083
				c5.384,0,7.442,5.575,7.442,10.742C41.58,67.531,38.365,70.351,34.985,70.351z M34.619,71.32c5.439,0,9.779-4.603,9.779-10.929
				c0-5.51-3.27-10.741-9.779-10.741c-5.807,0-10.033,4.794-10.033,11.054C24.586,66.342,28.36,71.32,34.619,71.32z"/>
			<path style="fill:#007082;" d="M65.89,66.122c0,3.289,0.053,3.727,1.69,3.914l0.902,0.094c0.169,0.125,0.112,0.691-0.058,0.786
				c-1.605-0.062-2.564-0.095-3.693-0.095c-1.124,0-2.112,0.033-3.914,0.095c-0.17-0.095-0.227-0.629,0-0.786l1.014-0.094
				c1.605-0.156,1.747-0.625,1.747-3.914V52.124c0-0.971,0-1.001-0.846-1.001h-1.551c-1.213,0-2.761,0.063-3.468,0.78
				c-0.676,0.692-0.959,1.381-1.267,2.162c-0.225,0.188-0.619,0.033-0.732-0.218c0.452-1.411,0.874-3.415,1.073-4.668
				c0.084-0.063,0.45-0.092,0.534,0c0.17,1.005,1.1,0.972,2.396,0.972h11.412c1.524,0,1.777-0.062,2.198-0.876
				c0.143-0.064,0.452-0.032,0.507,0.093c-0.308,1.284-0.507,3.824-0.422,4.764c-0.111,0.248-0.591,0.248-0.731,0.059
				c-0.084-0.781-0.282-1.941-0.706-2.288c-0.647-0.53-1.717-0.78-3.266-0.78h-2.003c-0.846,0-0.817,0.031-0.817,1.064V66.122z"/>
			<path style="fill:#007082;" d="M88.387,54.847c0-3.256-0.055-3.725-1.72-3.944l-0.449-0.064
				c-0.168-0.125-0.114-0.689,0.056-0.781c1.211,0.061,2.169,0.093,3.326,0.093h5.298c1.802,0,3.469,0,3.806-0.093
				c0.17,0.532,0.34,2.787,0.45,4.164c-0.11,0.188-0.564,0.253-0.704,0.064c-0.422-1.473-0.676-2.568-2.143-2.976
				c-0.591-0.156-1.491-0.187-2.733-0.187h-2.03c-0.844,0-0.844,0.063-0.844,1.253v6.263c0,0.876,0.084,0.876,0.928,0.876h1.637
				c1.183,0,2.057-0.062,2.395-0.188c0.338-0.125,0.535-0.315,0.677-1.097l0.225-1.284c0.138-0.188,0.62-0.188,0.733,0.032
				c0,0.75-0.113,1.972-0.113,3.163c0,1.125,0.113,2.317,0.113,3.006c-0.113,0.221-0.595,0.221-0.733,0.032l-0.255-1.223
				c-0.112-0.563-0.309-1.031-0.875-1.188c-0.392-0.125-1.07-0.16-2.167-0.16h-1.637c-0.844,0-0.928,0.034-0.928,0.848v4.416
				c0,1.659,0.084,2.722,0.535,3.259c0.339,0.372,0.929,0.718,3.41,0.718c2.169,0,2.987-0.124,3.608-0.469
				c0.505-0.315,1.266-1.41,2.002-3.039c0.195-0.156,0.59-0.063,0.701,0.221c-0.196,1.094-0.9,3.507-1.267,4.353
				c-2.537-0.062-5.044-0.095-7.555-0.095h-2.535c-1.214,0-2.172,0.033-3.834,0.095c-0.167-0.095-0.224-0.597-0.054-0.786
				l0.927-0.094c1.608-0.156,1.748-0.625,1.748-3.914V54.847z"/>
			<path style="fill:#007082;" d="M122.274,66.122c0,3.289,0.056,3.727,1.69,3.914l0.902,0.094c0.169,0.125,0.115,0.691-0.054,0.786
				c-1.606-0.062-2.567-0.095-3.692-0.095c-1.129,0-2.115,0.033-3.919,0.095c-0.17-0.095-0.223-0.629,0-0.786l1.013-0.094
				c1.609-0.156,1.748-0.625,1.748-3.914V52.124c0-0.971,0-1.001-0.845-1.001h-1.548c-1.212,0-2.764,0.063-3.468,0.78
				c-0.676,0.692-0.958,1.381-1.268,2.162c-0.226,0.188-0.621,0.033-0.733-0.218c0.45-1.411,0.874-3.415,1.072-4.668
				c0.083-0.063,0.45-0.092,0.534,0c0.168,1.005,1.1,0.972,2.397,0.972h11.414c1.522,0,1.776-0.062,2.198-0.876
				c0.14-0.064,0.449-0.032,0.509,0.093c-0.311,1.284-0.509,3.824-0.423,4.764c-0.114,0.248-0.594,0.248-0.734,0.059
				c-0.084-0.781-0.281-1.941-0.704-2.288c-0.65-0.53-1.72-0.78-3.27-0.78h-2.001c-0.847,0-0.818,0.031-0.818,1.064V66.122z"/>
			<path style="fill:#007082;" d="M147.142,71.32c-2.369,0-3.861-0.815-4.397-1.157c-0.34-0.691-0.706-2.913-0.762-4.384
				c0.141-0.222,0.565-0.281,0.677-0.094c0.425,1.596,1.578,4.665,4.848,4.665c2.368,0,3.521-1.724,3.521-3.6
				c0-1.379-0.253-2.912-2.31-4.386l-2.676-1.941c-1.412-1.034-3.044-2.818-3.044-5.387c0-2.976,2.085-5.387,5.75-5.387
				c0.874,0,1.886,0.158,2.619,0.408c0.366,0.093,0.76,0.187,0.987,0.187c0.253,0.752,0.505,2.507,0.505,3.82
				c-0.109,0.188-0.561,0.281-0.703,0.094c-0.368-1.5-1.129-3.538-3.831-3.538c-2.763,0-3.358,2.038-3.358,3.478
				c0,1.815,1.355,3.099,2.398,3.852l2.257,1.565c1.774,1.221,3.522,3.038,3.522,6.012C153.147,68.972,150.806,71.32,147.142,71.32z
				"/>
			<path style="fill:#007082;" d="M182.323,58.012c0-1.942-0.055-5.543-0.536-6.481c-0.197-0.378-0.704-0.598-1.409-0.659
				l-0.704-0.064c-0.17-0.218-0.111-0.624,0.059-0.75c1.069,0.061,2.113,0.093,3.213,0.093c1.183,0,1.943-0.031,2.958-0.093
				c0.227,0.159,0.199,0.563,0.058,0.75l-0.678,0.064c-0.704,0.061-1.267,0.343-1.408,0.752c-0.424,1.035-0.396,4.636-0.396,6.388
				v3.538c0,2.724-0.394,5.604-1.972,7.487c-1.211,1.467-3.295,2.282-5.382,2.282c-1.944,0-3.89-0.404-5.271-1.72
				c-1.494-1.379-2.197-3.662-2.197-7.392v-7.391c0-3.259-0.058-3.79-1.693-3.945l-0.704-0.064c-0.168-0.125-0.113-0.657,0.055-0.75
				c1.41,0.061,2.371,0.093,3.497,0.093c1.154,0,2.086-0.031,3.465-0.093c0.172,0.093,0.224,0.626,0.056,0.75l-0.676,0.064
				c-1.634,0.155-1.691,0.687-1.691,3.945v6.764c0,5.043,1.41,8.361,5.722,8.361c4.088,0,5.636-3.57,5.636-8.33V58.012z"/>
		</g>
		<g>
			<path style="fill:#007082;" d="M580.907,37.93c2.887,0.543,4.087,1.292,4.108,8.434v38.114h8.506c0,0,0.007-48.281,0.007-48.297
				c-3.375,0-14.073,0-14.073,0l-0.002,1.549L580.907,37.93z"/>
			<path style="fill:#007082;" d="M660.946,36.185c-4.087-0.011-10.4,0-10.4,0l0.008,1.524l1.525,0.222
				c1.829,0.294,2.725,1.041,3.501,2.105c2.006,2.735,1.557,8.673,1.557,14.177v14.456c0,1.173,0,1.538-0.219,1.759
				c-0.733-0.441-28.084-31.264-30.584-34.226c-1.3-0.01-12.894,0.005-12.894,0.005l0.006,1.818l0.786,0.133
				c1.003,0.181,2.724,0.584,3.887,1.465c2.355,1.789,2.419,3.299,2.419,9.019v35.837h3.814V51.497c0-3.884,0-4.691,0.22-4.691
				c1.248,1.1,31.789,36.05,33.125,37.681h3.248V36.185z"/>
			<path style="fill:#007082;" d="M728.329,36.185c-4.092-0.011-10.398,0-10.398,0v1.524l1.527,0.222
				c1.833,0.294,2.723,1.041,3.504,2.105c2.006,2.735,1.556,8.673,1.556,14.177v14.456c0,1.173,0,1.538-0.217,1.759
				c-0.737-0.441-28.085-31.264-30.584-34.226c-1.299-0.01-12.895,0.005-12.895,0.005l0.005,1.818l0.789,0.133
				c1.003,0.181,2.721,0.584,3.884,1.465c2.356,1.789,2.42,3.299,2.42,9.019v35.837h3.814V51.497c0-3.884,0-4.691,0.222-4.691
				c1.244,1.1,31.786,36.05,33.124,37.681h3.251L728.329,36.185z"/>
		</g>
		<g>
			<path style="fill:#EE7826;" d="M365.236,17.092c9.175-1.69,25.007-5.504,32.112-7.737c0.033,0.02-5.751-9.348-5.782-9.355
				c-6.132,5.832-18.876,13.116-26.585,16.636C365.056,16.76,365.159,16.969,365.236,17.092z"/>
			<g>
				<path style="fill:#007082;" d="M339.786,89.213c-1.242-0.149-4.138-0.777-6.596-2.887c-4.415-3.659-9.111-11.603-16.626-24.286
					c-0.377-0.561-0.564-1.315,0-1.593c4.6-1.881,11.27-6.202,11.27-14.842c0-6.766-3.473-11.178-8.264-13.715
					c-4.132-2.255-10.46-2.348-17.786-2.348c-7.703,0-21.416,0-21.416,0s0.002,1.904,0.002,1.909
					c0.644,0.017,1.107,0.107,2.154,0.365c3.189,0.775,4.451,2.454,4.451,11.249v47.938h10.896V37.058
					c0-4.32,0.009-4.195,4.895-4.195c8.171,0,13.045,6.072,13.045,13.492c0,8.658-3.917,13.064-12.639,13.5v0.964
					c1.243,1.989,2.273,3.797,3.434,5.731c2.255,3.664,4.886,8.833,7.421,12.775c5.729,8.734,10.222,11.694,19.24,11.694
					c2.897,0,6.509,0.017,6.52,0.012V89.213z"/>
				<path style="fill:#007082;" d="M403.853,78.226c0,0-0.954,9.367-11.432,9.367c-0.884,0-5.627,0.017-6.647,0.017
					c-6.128,0-8.555-0.749-9.679-2.069c-1.411-1.595-1.597-4.974-1.597-9.765v-12.49c0-2.347,0.094-2.536,2.255-2.536h8.455
					c5.664,0.022,6.796,1.762,7.636,3.717c0.738,1.723,0.668,4.251,0.668,4.251l1.835,0.017V49.48l-1.884,0.011
					c0,0-0.105,1.443-0.648,3.263c-0.903,3.038-2.951,4.144-7.606,4.144h-8.455c-2.161,0-2.255-0.092-2.255-2.535V38.318
					c0-5.353,0-5.54,4.037-5.54h8.553c2.536,0,5.421,0.465,7.228,0.957c2.874,0.987,4.677,3.931,5.359,7.458h1.442
					c0,0.009,0-11.644,0-11.644l-31.972,0.018c-4.134,0-12.119-0.018-12.119-0.018l-0.015,1.902l1.333,0.195
					c3.635,0.719,5.194,1.787,5.257,10.895v48.46l41.764,0.003l-0.023-12.767L403.853,78.226z"/>
				<path style="fill:#007082;" d="M228.141,91.002l0.017-27.715c0-2.347,0.094-2.536,2.253-2.536h8.46
					c5.665,0.022,6.797,1.762,7.637,3.717c0.737,1.723,0.668,4.251,0.668,4.251l1.835,0.017V49.48l-1.886,0.011
					c0,0-0.106,1.443-0.646,3.263c-0.905,3.038-2.953,4.144-7.608,4.144h-8.46c-2.16,0-2.253-0.092-2.253-2.535v-16.06
					c0-5.207,0.243-5.54,4.04-5.54h8.553c2.537,0,5.421,0.464,7.228,0.959c2.874,0.984,4.676,3.927,5.36,7.456h1.442
					c0,0.009,0-11.644,0-11.644l-44.109,0.012v1.892l1.332,0.196c3.635,0.718,5.196,1.783,5.26,10.896v48.472L228.141,91.002z"/>
				<path style="fill:#007082;" d="M433.659,90.267V78.791h1.297l0.28,1.282c0.979,2.968,3.727,6.182,6.1,7.414
					c2.964,1.544,5.664,2.019,9.169,2.019c3.31,0,6.451-1.068,8.559-3.06c2.405-2.273,3.684-5.278,3.684-8.564
					c0-2.593-0.701-4.989-1.907-6.578c-1.212-1.558-3.443-3.37-6.898-5.266l-4.168-2.258c-10.418-5.709-15.823-11.922-15.823-18.638
					c0-5.262,1.697-9.49,5.482-12.681c3.78-3.189,8.807-4.784,15.073-4.784c4.915,0,10.534,0.904,16.858,2.717v11.08h-1.427
					l-0.485-1.479c-0.937-2.753-2.75-5.048-4.565-6.347c-2.407-1.725-6.022-2.941-9.508-2.683c-2.689,0.204-5.019,1.098-6.99,2.909
					c-1.553,1.427-2.983,3.434-3.078,6.605c-0.068,2.298,0.438,4.653,1.837,6.547c1.133,1.534,3.554,3.167,6.988,5.119l4.222,2.421
					c6.161,3.512,10.385,6.633,12.664,9.362c2.253,2.76,3.769,6.116,3.769,10.071c0,5.657-2.129,10.168-6.393,13.54
					c-4.259,3.371-9.99,5.056-17.188,5.056C446.12,92.595,440.267,91.818,433.659,90.267z"/>
				<path style="fill:#007082;" d="M524.293,29.54l-14.619,0.009l0.003,1.589c0,0,1.285,0.104,2.131,1.128
					c0.818,0.991,1.344,2.161,0.703,4.731L493.144,91.01h4.725l18.191-51.388l21.716,51.386h12.765L524.293,29.54z"/>
			</g>
		</g>
	</g>
</g>
</svg>
