<?xml version="1.0" encoding="iso-8859-1"?>
<!-- Generator: Adobe Illustrator 25.0.1, SVG Export Plug-In . SVG Version: 6.00 Build 0)  -->
<svg version="1.1" id="&#x30EC;&#x30A4;&#x30E4;_xFF0D__1"
	 xmlns="http://www.w3.org/2000/svg" xmlns:xlink="http://www.w3.org/1999/xlink" x="0px" y="0px" viewBox="0 0 504.997 98.031"
	 style="enable-background:new 0 0 504.997 98.031;" xml:space="preserve">
<g>
	<g>
		<g>
			<g>
				<g>
					<path style="fill:#231815;" d="M93.163,7.479h-8.651v-7.04h24.779v7.04h-8.651v45.164h-7.477V7.479z M113.252,0.439h7.478
						v22.363h9.238V0.439h7.477v52.204h-7.477V29.841h-9.238v22.802h-7.478V0.439z M369.432,0.439h7.477v22.363h9.24V0.439h7.476
						v52.204h-7.476V29.841h-9.24v22.802h-7.477V0.439z M144.046,0.439h22.289v7.04h-14.81v15.323h12.904v7.039h-12.904v15.323
						h14.81v7.479h-22.289V0.439z M213.113,12.757c0-2.101,0.365-3.96,1.099-5.573c0.734-1.614,1.697-2.944,2.896-3.995
						c1.197-1.052,2.542-1.845,4.034-2.384C222.631,0.269,224.134,0,225.65,0c1.514,0,3.018,0.269,4.51,0.806
						c1.49,0.538,2.834,1.332,4.031,2.384c1.198,1.05,2.163,2.381,2.897,3.995c0.734,1.613,1.1,3.471,1.1,5.573v27.568
						c0,2.151-0.367,4.022-1.1,5.61c-0.734,1.587-1.699,2.907-2.897,3.959c-1.196,1.052-2.541,1.845-4.031,2.382
						c-1.492,0.537-2.995,0.808-4.51,0.808c-1.516,0-3.019-0.27-4.508-0.808c-1.492-0.537-2.836-1.331-4.034-2.382
						c-1.199-1.052-2.162-2.372-2.896-3.959c-0.734-1.588-1.099-3.458-1.099-5.61V12.757z M220.59,40.326
						c0,1.809,0.502,3.141,1.504,3.996c1.001,0.857,2.187,1.284,3.556,1.284c1.368,0,2.553-0.427,3.557-1.284
						c1-0.854,1.502-2.187,1.502-3.996V12.757c0-1.808-0.502-3.141-1.502-3.996c-1.004-0.856-2.189-1.282-3.557-1.282
						c-1.369,0-2.555,0.426-3.556,1.282c-1.002,0.856-1.504,2.188-1.504,3.996V40.326z M267.883,40.985
						c0,1.613-0.306,3.154-0.917,4.62c-0.612,1.466-1.456,2.748-2.53,3.849c-1.075,1.1-2.335,1.979-3.776,2.641
						c-1.442,0.659-2.995,0.989-4.655,0.989c-1.419,0-2.861-0.196-4.326-0.588c-1.467-0.39-2.787-1.063-3.96-2.017
						c-1.173-0.952-2.14-2.211-2.897-3.775c-0.758-1.564-1.136-3.544-1.136-5.939V12.023c0-1.711,0.294-3.3,0.88-4.766
						c0.587-1.466,1.417-2.736,2.494-3.813c1.074-1.074,2.357-1.918,3.847-2.53C252.399,0.305,254.049,0,255.857,0
						c1.711,0,3.301,0.305,4.766,0.915c1.466,0.612,2.738,1.466,3.813,2.567c1.074,1.099,1.918,2.419,2.53,3.959
						c0.61,1.54,0.917,3.214,0.917,5.022v2.934h-7.48v-2.493c0-1.466-0.417-2.737-1.245-3.813c-0.833-1.074-1.956-1.612-3.374-1.612
						c-1.858,0-3.092,0.573-3.702,1.721c-0.611,1.149-0.917,2.604-0.917,4.364v26.689c0,1.516,0.33,2.785,0.99,3.813
						c0.66,1.027,1.844,1.54,3.556,1.54c0.488,0,1.014-0.086,1.577-0.258c0.562-0.169,1.074-0.452,1.54-0.843
						c0.464-0.39,0.843-0.928,1.136-1.613c0.293-0.683,0.439-1.54,0.439-2.566v-2.566h7.48V40.985z M272.426,0.439h7.479v23.83
						h0.149l10.924-23.83h7.478l-10.191,20.896l12.098,31.308h-7.919l-8.505-23.169l-4.034,7.552v15.617h-7.479V0.439z
						 M303.662,0.439h22.29v7.04h-14.811v15.323h12.905v7.039h-12.905v15.323h14.811v7.479h-22.29V0.439z M338.784,7.479h-8.653
						v-7.04h24.783v7.04h-8.653v45.164h-7.477V7.479z M399.124,12.757c0-2.101,0.366-3.96,1.099-5.573
						c0.734-1.614,1.699-2.944,2.898-3.995c1.197-1.052,2.54-1.845,4.033-2.384C408.643,0.269,410.147,0,411.662,0
						c1.513,0,3.016,0.269,4.508,0.806c1.49,0.538,2.834,1.332,4.032,2.384c1.198,1.05,2.164,2.381,2.897,3.995
						c0.733,1.613,1.1,3.471,1.1,5.573v27.568c0,2.151-0.366,4.022-1.1,5.61c-0.733,1.587-1.699,2.907-2.897,3.959
						c-1.198,1.052-2.542,1.845-4.032,2.382c-1.492,0.537-2.995,0.808-4.508,0.808c-1.516,0-3.02-0.27-4.509-0.808
						c-1.492-0.537-2.836-1.331-4.033-2.382c-1.199-1.052-2.164-2.372-2.898-3.959c-0.732-1.588-1.099-3.458-1.099-5.61V12.757z
						 M406.603,40.326c0,1.809,0.501,3.141,1.503,3.996c1.003,0.857,2.188,1.284,3.557,1.284c1.367,0,2.552-0.427,3.555-1.284
						c1.002-0.854,1.503-2.187,1.503-3.996V12.757c0-1.808-0.501-3.141-1.503-3.996c-1.003-0.856-2.188-1.282-3.555-1.282
						c-1.369,0-2.555,0.426-3.557,1.282c-1.002,0.856-1.503,2.188-1.503,3.996V40.326z M435.052,7.479h-8.652v-7.04h24.782v7.04
						h-8.651v45.164h-7.478V7.479z M455.36,0.439h22.288v7.04h-14.81v15.323h12.904v7.039h-12.904v15.323h14.81v7.479H455.36V0.439z
						 M482.708,0.439h7.479v44.725h14.81v7.479h-22.289V0.439z M196.175,0.439h-11.364v52.204h7.479V32.26h3.886
						c8.788,0,12.905-5.074,12.905-15.906C209.081,4.91,204.963,0.439,196.175,0.439z M196.175,25.22l-3.886,0.001V7.479h3.886
						c4.9,0,5.866,3.976,5.866,8.875C202.041,21.254,201.075,25.22,196.175,25.22z"/>
					<path style="fill:#B79200;" d="M0,0.437v52.207h7.478V32.267c7.073,0,42.963,0,42.963,0c8.789,0,15.913-7.128,15.913-15.916
						c0-8.789-7.125-15.914-15.913-15.914H0z M50.004,25.22H7.478V7.477h42.526c4.9,0,8.871,3.974,8.871,8.874
						S54.904,25.22,50.004,25.22z"/>
				</g>
			</g>
		</g>
	</g>
	<path style="fill:#231815;" d="M254.757,81.212h-3.191v-2.596h9.14v2.596h-3.191v16.657h-2.758V81.212z M276.887,97.868h2.758
		V81.212h3.191v-2.596h-9.14v2.596h3.191V97.868z M240.391,93.325c0,0.794,0.135,1.483,0.405,2.069
		c0.271,0.586,0.626,1.072,1.068,1.46c0.442,0.388,0.937,0.68,1.488,0.879c0.549,0.198,1.104,0.298,1.663,0.298
		c0.558,0,1.113-0.1,1.663-0.298c0.549-0.198,1.045-0.491,1.487-0.879c0.442-0.388,0.798-0.875,1.068-1.46
		c0.27-0.585,0.406-1.275,0.406-2.069V83.158c0-0.775-0.135-1.461-0.406-2.055c-0.271-0.595-0.627-1.086-1.068-1.473
		c-0.442-0.388-0.937-0.68-1.487-0.879c-0.55-0.198-1.105-0.297-1.663-0.297c-0.559,0-1.113,0.099-1.663,0.297
		c-0.55,0.199-1.046,0.491-1.488,0.879c-0.442,0.388-0.797,0.878-1.068,1.473c-0.271,0.595-0.405,1.28-0.405,2.055V93.325z
		 M243.149,83.158c0-0.667,0.185-1.158,0.555-1.474c0.369-0.315,0.806-0.473,1.311-0.473c0.504,0,0.942,0.158,1.312,0.473
		c0.369,0.315,0.554,0.807,0.554,1.474v10.167c0,0.667-0.185,1.159-0.554,1.474c-0.37,0.316-0.807,0.473-1.312,0.473
		c-0.505,0-0.942-0.157-1.311-0.473c-0.37-0.315-0.555-0.806-0.555-1.474V83.158z M263.122,97.868h8.22V95.11h-5.462v-5.651h4.759
		v-2.596h-4.759v-5.651h5.462v-2.596h-8.22V97.868z M237.66,82.807c0-0.541-0.108-1.068-0.324-1.582
		c-0.216-0.514-0.527-0.978-0.933-1.393c-0.406-0.415-0.892-0.748-1.46-1c-0.568-0.252-1.194-0.379-1.879-0.379
		c-0.793,0-1.487,0.14-2.082,0.419c-0.595,0.28-1.086,0.653-1.474,1.122c-0.388,0.469-0.68,1.028-0.879,1.677
		c-0.199,0.649-0.298,1.335-0.298,2.055c0,1.208,0.203,2.213,0.609,3.015c0.406,0.802,1.203,1.447,2.393,1.933l1.974,0.811
		c0.342,0.144,0.617,0.28,0.825,0.406c0.207,0.126,0.369,0.289,0.487,0.487c0.117,0.199,0.194,0.46,0.23,0.784
		c0.036,0.324,0.054,0.739,0.054,1.244c0,0.433-0.018,0.829-0.054,1.19c-0.036,0.361-0.122,0.662-0.257,0.906
		c-0.135,0.243-0.334,0.433-0.595,0.568c-0.262,0.135-0.627,0.203-1.095,0.203c-0.703,0-1.203-0.203-1.501-0.609
		c-0.298-0.405-0.446-0.86-0.446-1.365v-0.865h-2.758v1.027c0,0.649,0.122,1.253,0.365,1.812c0.244,0.559,0.572,1.041,0.987,1.447
		c0.414,0.406,0.91,0.726,1.487,0.96c0.577,0.234,1.199,0.351,1.866,0.351c0.883,0,1.631-0.144,2.244-0.433
		c0.613-0.288,1.104-0.68,1.474-1.176c0.369-0.495,0.635-1.091,0.798-1.785c0.162-0.694,0.243-1.446,0.243-2.258
		c0-0.703-0.036-1.329-0.108-1.879c-0.072-0.549-0.212-1.036-0.419-1.46c-0.207-0.424-0.5-0.793-0.879-1.109
		c-0.379-0.315-0.875-0.59-1.487-0.825l-2.109-0.838c-0.361-0.144-0.645-0.288-0.852-0.433c-0.207-0.144-0.365-0.311-0.473-0.5
		c-0.108-0.189-0.176-0.415-0.202-0.676c-0.027-0.261-0.041-0.581-0.041-0.96c0-0.324,0.027-0.635,0.081-0.933
		c0.054-0.298,0.149-0.559,0.284-0.784c0.135-0.225,0.324-0.41,0.568-0.554c0.243-0.144,0.554-0.216,0.933-0.216
		c0.703,0,1.203,0.23,1.501,0.689c0.298,0.46,0.446,1.005,0.446,1.636v0.622h2.758V82.807z M293.88,82.807
		c0-0.541-0.108-1.068-0.324-1.582c-0.216-0.514-0.527-0.978-0.933-1.393c-0.405-0.415-0.892-0.748-1.46-1
		c-0.568-0.252-1.195-0.379-1.879-0.379c-0.793,0-1.487,0.14-2.082,0.419c-0.595,0.28-1.086,0.653-1.473,1.122
		c-0.388,0.469-0.681,1.028-0.879,1.677c-0.198,0.649-0.297,1.335-0.297,2.055c0,1.208,0.202,2.213,0.608,3.015
		c0.406,0.802,1.204,1.447,2.393,1.933l1.974,0.811c0.342,0.144,0.617,0.28,0.825,0.406c0.207,0.126,0.369,0.289,0.487,0.487
		c0.117,0.199,0.193,0.46,0.23,0.784c0.036,0.324,0.054,0.739,0.054,1.244c0,0.433-0.018,0.829-0.054,1.19
		c-0.036,0.361-0.122,0.662-0.257,0.906c-0.135,0.243-0.334,0.433-0.595,0.568c-0.262,0.135-0.627,0.203-1.095,0.203
		c-0.703,0-1.203-0.203-1.501-0.609c-0.297-0.405-0.446-0.86-0.446-1.365v-0.865h-2.758v1.027c0,0.649,0.122,1.253,0.365,1.812
		c0.243,0.559,0.572,1.041,0.987,1.447c0.415,0.406,0.91,0.726,1.487,0.96c0.577,0.234,1.199,0.351,1.866,0.351
		c0.883,0,1.631-0.144,2.245-0.433c0.613-0.288,1.104-0.68,1.473-1.176c0.369-0.495,0.635-1.091,0.798-1.785
		c0.162-0.694,0.243-1.446,0.243-2.258c0-0.703-0.036-1.329-0.108-1.879c-0.072-0.549-0.212-1.036-0.419-1.46
		c-0.207-0.424-0.5-0.793-0.879-1.109c-0.379-0.315-0.875-0.59-1.487-0.825l-2.109-0.838c-0.361-0.144-0.645-0.288-0.852-0.433
		c-0.207-0.144-0.365-0.311-0.473-0.5c-0.108-0.189-0.176-0.415-0.203-0.676c-0.027-0.261-0.041-0.581-0.041-0.96
		c0-0.324,0.027-0.635,0.081-0.933c0.054-0.298,0.149-0.559,0.284-0.784c0.135-0.225,0.324-0.41,0.568-0.554
		c0.244-0.144,0.554-0.216,0.933-0.216c0.703,0,1.203,0.23,1.501,0.689c0.298,0.46,0.446,1.005,0.446,1.636v0.622h2.758V82.807z
		 M305.519,78.616h-2.758v14.655c0,0.686-0.162,1.19-0.487,1.515s-0.73,0.487-1.217,0.487c-0.487,0-0.892-0.162-1.217-0.487
		s-0.487-0.829-0.487-1.515V78.616h-2.758v14.926c0,0.631,0.117,1.217,0.352,1.757c0.234,0.541,0.554,1.014,0.96,1.42
		c0.406,0.406,0.879,0.726,1.419,0.96c0.541,0.234,1.117,0.351,1.73,0.351c0.613,0,1.19-0.118,1.731-0.351
		c0.541-0.234,1.014-0.554,1.419-0.96c0.406-0.406,0.725-0.879,0.96-1.42c0.234-0.541,0.351-1.126,0.351-1.757V78.616z
		 M202.556,97.869h3.758c1.802,0,3.114-0.451,3.934-1.352c0.82-0.901,1.23-2.199,1.23-3.894v-1.082c0-1.009-0.153-1.816-0.46-2.42
		c-0.307-0.604-0.784-1.059-1.433-1.365c0.307-0.18,0.577-0.374,0.811-0.582c0.234-0.207,0.433-0.446,0.595-0.717
		c0.162-0.27,0.284-0.585,0.365-0.946c0.081-0.36,0.122-0.802,0.122-1.325v-0.703c0-0.631-0.086-1.239-0.257-1.825
		c-0.171-0.586-0.455-1.104-0.852-1.555c-0.397-0.451-0.906-0.811-1.528-1.082c-0.622-0.27-1.375-0.405-2.258-0.405h-4.029V97.869z
		 M205.314,81.212h1.136c0.919,0,1.555,0.216,1.906,0.649c0.352,0.433,0.527,1.082,0.527,1.947c0,0.884-0.158,1.555-0.473,2.015
		c-0.315,0.46-0.933,0.69-1.852,0.69h-1.244V81.212z M205.314,88.945h1.217c0.504,0,0.91,0.063,1.217,0.189
		c0.306,0.126,0.545,0.311,0.716,0.554c0.171,0.243,0.284,0.545,0.338,0.906c0.054,0.361,0.081,0.784,0.081,1.271
		c0,0.469-0.018,0.902-0.054,1.298c-0.036,0.397-0.135,0.739-0.298,1.028c-0.162,0.289-0.401,0.514-0.717,0.676
		c-0.315,0.162-0.753,0.244-1.311,0.244h-1.19V88.945z M216.454,97.869h2.758v-8.139l3.786-11.113h-2.921l-2.217,7.652h-0.054
		l-2.217-7.652h-2.921l3.786,11.113V97.869z"/>
</g>
</svg>
