<?xml version="1.0" encoding="iso-8859-1"?>
<!-- Generator: Adobe Illustrator 25.0.1, SVG Export Plug-In . SVG Version: 6.00 Build 0)  -->
<svg version="1.1" id="&#x30EC;&#x30A4;&#x30E4;_xFF0D__1"
	 xmlns="http://www.w3.org/2000/svg" xmlns:xlink="http://www.w3.org/1999/xlink" x="0px" y="0px" viewBox="0 0 443.771 46.782"
	 style="enable-background:new 0 0 443.771 46.782;" xml:space="preserve">
<g>
	<g>
		<path style="fill:#333333;" d="M210.503,32.8c1.014,2.14,3.312,4.788,7.27,4.788c4.085,0,6.574-3.003,6.574-6.675
			c0-8.467-14.487-4.82-14.487-15.64c0-5.114,3.855-8.698,9.974-8.698c2.911,0,4.978,0.696,6.819,2.154
			c-0.553,1.065-0.88,2.129-1.239,3.87h-0.559c-0.64-1.714-2.018-4.317-5.464-4.317c-3.465,0-5.949,2.353-5.949,5.7
			c0,8.604,14.485,5.029,14.485,15.173c0,5.617-4.184,10.355-11.263,10.355c-3.819,0-5.973-1.337-7.584-2.621
			c0.546-1.424,0.682-2.365,0.873-4.09H210.503z"/>
		<path style="fill:#333333;" d="M257.034,7.177c0.602,0.137,1.252,0.231,1.887,0.231c0.459,0,0.97-0.094,1.38-0.231
			c-0.366,4.287-0.73,12.379-0.825,19.081c-0.096,8.142-4.83,13.253-13.104,13.253c-9.12,0-13.167-4.221-13.167-13.15
			c0-2.85,0.243-4.978,0.243-7.277c0-5.049-0.183-9.229-0.28-11.907c0.743,0.137,1.656,0.231,2.398,0.231
			c0.64,0,1.381-0.094,1.966-0.231c-0.279,2.71-0.548,8.964-0.548,15.778c0,6.246,0,14.391,10.252,14.391
			c10.075,0,10.075-9.44,10.075-15.217C257.31,13.394,257.31,8.976,257.034,7.177z"/>
		<path style="fill:#333333;" d="M291.522,39.511c-6.989-8.227-15.351-17.064-23.216-25.428c-0.06,1.703-0.137,4.45-0.137,9.323
			c0,3.969,0.18,13.658,0.402,15.503c-0.502-0.13-1.046-0.229-1.6-0.229c-0.551,0-1.093,0.098-1.709,0.229
			c0.378-2.165,0.969-13.935,0.969-19.996c0-5.805,0-10.27-0.132-12.337h0.744c7.485,8.144,17.658,19.227,23.266,24.888
			c0-8.236,0-17.206-0.374-24.286c0.51,0.137,1.058,0.231,1.564,0.231c0.51,0,0.978-0.094,1.473-0.231
			c-0.273,2.71-0.734,11.834-0.734,15.409c0,4.683,0.086,14.846,0.133,16.924H291.522z"/>
		<path style="fill:#333333;" d="M301.44,19.084c0-3.946-0.189-7.947-0.371-11.907c1.74,0.137,3.486,0.231,5.237,0.231
			c1.752,0,3.499-0.231,5.242-0.231c5.204,0,9.582,1.799,9.582,7.281c0,5.924-5.952,8.318-9.426,8.769
			c2.232,2.804,9.931,12.694,12.594,15.682c-0.916-0.13-1.837-0.229-2.763-0.229c-0.873,0-1.786,0.098-2.663,0.229
			c-1.853-2.806-7.965-11.271-11.913-15.281h-1.758V27c0,3.96,0.195,7.94,0.377,11.909c-0.793-0.13-1.522-0.229-2.262-0.229
			c-0.737,0-1.472,0.098-2.246,0.229c0.182-3.969,0.371-7.95,0.371-11.909V19.084z M305.201,21.71
			c0.823,0.181,1.894,0.222,3.085,0.222c3.763,0,8.784-1.55,8.784-7.036c0-4.823-4.001-6.006-7.129-6.006
			c-2.116,0-3.496,0.135-4.461,0.227c-0.144,3.346-0.279,6.67-0.279,9.968V21.71z"/>
		<path style="fill:#333333;" d="M341.833,6.575c10.172,0,17.248,6.024,17.248,16.46c0,10.472-7.076,16.476-17.248,16.476
			c-10.117,0-17.201-6.004-17.201-16.476C324.632,12.6,331.716,6.575,341.833,6.575z M341.833,8.283
			c-7.184,0-12.696,4.548-12.696,14.752c0,10.218,5.512,14.766,12.696,14.766c7.225,0,12.737-4.548,12.737-14.766
			C354.57,12.831,349.058,8.283,341.833,8.283z"/>
		<path style="fill:#333333;" d="M389.678,7.177c0.601,0.137,1.238,0.231,1.883,0.231c0.461,0,0.975-0.094,1.378-0.231
			c-0.359,4.287-0.735,12.379-0.828,19.081c-0.089,8.142-4.835,13.253-13.105,13.253c-9.11,0-13.159-4.221-13.159-13.15
			c0-2.85,0.229-4.978,0.229-7.277c0-5.049-0.183-9.229-0.264-11.907c0.731,0.137,1.645,0.231,2.388,0.231
			c0.641,0,1.381-0.094,1.979-0.231c-0.282,2.71-0.548,8.964-0.548,15.778c0,6.246,0,14.391,10.257,14.391
			c10.074,0,10.074-9.44,10.074-15.217C389.959,13.394,389.959,8.976,389.678,7.177z"/>
		<path style="fill:#333333;" d="M408.315,18.501c0-3.17-0.055-6.34-0.139-9.513c-3.183,0-7.269,0.188-9.853,0.504
			c0.139-0.462,0.23-0.966,0.23-1.483c0-0.46-0.092-0.907-0.23-1.417c3.954,0.137,7.912,0.229,11.857,0.229
			c3.973,0,7.921-0.091,11.882-0.229c-0.134,0.51-0.239,0.957-0.239,1.47c0,0.465,0.105,0.968,0.239,1.431
			c-2.589-0.316-6.676-0.504-9.857-0.504c-0.079,3.173-0.13,6.343-0.13,9.513v7.911c0,3.962,0.19,7.947,0.366,11.909
			c-0.783-0.121-1.51-0.233-2.26-0.233c-0.738,0-1.463,0.112-2.242,0.233c0.177-3.962,0.376-7.947,0.376-11.909V18.501z"/>
		<path style="fill:#333333;" d="M427.493,18.464c0-3.964-0.183-7.975-0.362-11.873c2.747,0.137,5.479,0.229,8.225,0.229
			c2.765,0,5.469-0.091,8.183-0.229c-0.087,0.46-0.121,0.911-0.121,1.376c0,0.465,0.034,0.922,0.121,1.385
			c-3.867-0.277-6.097-0.597-12.087-0.597c-0.041,1.987-0.181,3.591-0.181,5.844c0,2.399,0.044,4.919,0.044,6.077
			c5.421,0,8.463-0.229,11.171-0.472c-0.085,0.472-0.135,0.961-0.135,1.419c0,0.472,0.05,0.925,0.135,1.394
			c-3.175-0.327-8.963-0.421-11.171-0.421c-0.044,1.101-0.044,2.257-0.044,6.674c0,3.488,0.044,5.75,0.095,6.883
			c4.089,0,9.513-0.044,12.404-0.588c-0.081,0.419-0.137,1.019-0.137,1.435c0,0.407,0.056,0.9,0.137,1.321
			c-2.705-0.121-5.456-0.233-8.276-0.233c-2.799,0-5.564,0.112-8.364,0.233c0.179-4.006,0.362-7.991,0.362-11.953V18.464z"/>
		<path style="fill:#333333;" d="M80.01,18.501c0-3.946-0.191-7.945-0.387-11.909c0.79,0.137,1.52,0.229,2.273,0.229
			c0.725,0,1.477-0.091,2.247-0.229c-0.182,3.965-0.362,7.963-0.362,11.909v7.911c0,3.962,0.18,7.947,0.362,11.909
			c-0.77-0.121-1.522-0.233-2.247-0.233c-0.753,0-1.483,0.112-2.273,0.233c0.196-3.962,0.387-7.947,0.387-11.909V22.28
			c-3.232-0.05-6.401-0.094-9.624-0.094c-3.222,0-6.392,0.043-9.616,0.094v4.132c0,3.962,0.186,7.947,0.37,11.909
			c-0.783-0.121-1.51-0.233-2.247-0.233c-0.737,0-1.465,0.112-2.263,0.233c0.195-3.962,0.366-7.947,0.366-11.909v-7.911
			c0-3.946-0.172-7.945-0.366-11.909c0.798,0.137,1.526,0.229,2.263,0.229c0.737,0,1.464-0.091,2.247-0.229
			c-0.184,3.965-0.37,7.963-0.37,11.909v1.616c3.224,0.05,6.394,0.137,9.616,0.137c3.223,0,6.392-0.087,9.624-0.137V18.501z"/>
		<path style="fill:#333333;" d="M105.862,5.985c10.172,0,17.255,6.029,17.255,16.462c0,10.465-7.083,16.474-17.255,16.474
			c-10.114,0-17.202-6.008-17.202-16.474C88.659,12.014,95.748,5.985,105.862,5.985z M105.862,7.688
			c-7.172,0-12.697,4.555-12.697,14.759c0,10.222,5.525,14.764,12.697,14.764c7.219,0,12.739-4.541,12.739-14.764
			C118.601,12.243,113.081,7.688,105.862,7.688z"/>
		<path style="fill:#333333;" d="M133.619,18.501c0-3.17-0.057-6.34-0.139-9.513c-3.181,0-7.283,0.188-9.843,0.504
			c0.133-0.462,0.235-0.966,0.235-1.483c0-0.46-0.102-0.907-0.235-1.417c3.969,0.137,7.906,0.229,11.866,0.229
			c3.954,0,7.914-0.091,11.873-0.229c-0.137,0.51-0.242,0.957-0.242,1.47c0,0.465,0.104,0.968,0.242,1.431
			c-2.584-0.316-6.678-0.504-9.847-0.504c-0.088,3.173-0.14,6.343-0.14,9.513v7.911c0,3.962,0.183,7.947,0.363,11.909
			c-0.784-0.121-1.52-0.233-2.249-0.233c-0.737,0-1.463,0.112-2.249,0.233c0.187-3.962,0.365-7.947,0.365-11.909V18.501z"/>
		<path style="fill:#333333;" d="M152.809,18.464c0-3.964-0.189-7.975-0.382-11.873c2.773,0.137,5.482,0.229,8.243,0.229
			c2.763,0,5.479-0.091,8.188-0.229c-0.088,0.46-0.142,0.911-0.142,1.376c0,0.465,0.054,0.922,0.142,1.385
			c-3.868-0.277-6.112-0.597-12.096-0.597c-0.04,1.987-0.196,3.591-0.196,5.844c0,2.399,0.055,4.919,0.055,6.077
			c5.429,0,8.468-0.229,11.187-0.472c-0.089,0.472-0.149,0.961-0.149,1.419c0,0.472,0.06,0.925,0.149,1.394
			c-3.177-0.327-8.982-0.421-11.187-0.421c-0.055,1.101-0.055,2.257-0.055,6.674c0,3.488,0.055,5.75,0.111,6.883
			c4.09,0,9.514-0.044,12.406-0.588c-0.086,0.419-0.118,1.019-0.118,1.435c0,0.407,0.032,0.9,0.118,1.321
			c-2.708-0.121-5.46-0.233-8.275-0.233c-2.807,0-5.569,0.112-8.381,0.233c0.194-4.006,0.382-7.991,0.382-11.953V18.464z"/>
		<path style="fill:#333333;" d="M175.824,18.501c0-3.946-0.191-7.945-0.374-11.909c0.797,0.137,1.509,0.229,2.265,0.229
			c0.724,0,1.462-0.091,2.244-0.229c-0.182,3.965-0.371,7.963-0.371,11.909c0,7.734,0.09,13.15,0.129,17.653
			c4.334,0,8.097,0,12.7-0.588c-0.13,0.46-0.224,0.911-0.224,1.392c0,0.451,0.094,0.897,0.224,1.364
			c-2.803-0.121-5.652-0.233-8.461-0.233c-2.856,0-5.65,0.112-8.507,0.233c0.183-3.962,0.374-7.947,0.374-11.909V18.501z"/>
	</g>
	<g>
		<path style="fill:#B90069;" d="M0.002,9.173l0.004,14.697c2.972-0.482,9.022-1.368,14.711-1.657
			C9.211,16.896,3.083,11.721,0.002,9.173z"/>
		<path style="fill:#B90069;" d="M16.451,5.627c-1.268,0.052-2.256,0.142-2.256,0.142l3.94-5.346l3.931,5.346
			c0,0-0.991-0.09-2.255-0.138v14.25c7.068-6.795,15.039-13.293,16.424-14.415c0-1.729,0-2.814,0-2.814s-0.062-0.397-0.288-0.673
			C35.709,1.699,35.304,1.6,35.304,1.6S30.305,0,18.164,0C5.926,0,0.923,1.629,0.923,1.629S0.527,1.721,0.288,2.006
			C0.063,2.277,0,2.678,0,2.678l0.002,2.777c1.339,1.081,9.349,7.609,16.449,14.434V5.627z"/>
		<path style="fill:#B90069;" d="M36.234,23.733c0-4.141,0-10.044,0-14.549c-3.082,2.549-9.2,7.716-14.693,13.021
			C27.001,22.464,32.958,23.251,36.234,23.733z"/>
		<path style="fill:#B90069;" d="M16.451,46.782V27.382c-5.016,5.37-9.485,10.927-11.623,13.656
			C7.821,44.269,11.796,46.411,16.451,46.782z"/>
		<path style="fill:#B90069;" d="M33.242,38.697c1.89-2.858,2.992-6.278,2.992-9.954c0-0.005,0-0.787,0-2.082
			c-0.154-0.029-0.328-0.063-0.521-0.096c-3.205-0.463-8.925-1.212-14.117-1.475C26.483,30.295,30.887,35.708,33.242,38.697z"/>
		<path style="fill:#B90069;" d="M19.811,46.779c4.647-0.384,8.614-2.523,11.605-5.752c-2.141-2.733-6.601-8.275-11.605-13.634
			V46.779z"/>
		<path style="fill:#B90069;" d="M11.918,25.291c-4.889,0.403-9.661,1.131-11.91,1.497v1.955c0,3.68,1.101,7.104,2.991,9.965
			c2.35-2.975,6.733-8.373,11.606-13.566C13.689,25.182,12.789,25.23,11.918,25.291z"/>
	</g>
	<g>
		<path style="fill:#333333;" d="M80.037,18.503c0-3.946-0.191-7.948-0.388-11.915c0.791,0.14,1.521,0.23,2.274,0.23
			c0.725,0,1.478-0.09,2.248-0.23c-0.182,3.967-0.362,7.968-0.362,11.915v7.913c0,3.965,0.18,7.952,0.362,11.915
			c-0.77-0.123-1.523-0.233-2.248-0.233c-0.753,0-1.483,0.11-2.274,0.233c0.197-3.963,0.388-7.95,0.388-11.915v-4.132
			c-3.233-0.053-6.404-0.094-9.626-0.094c-3.224,0-6.395,0.04-9.62,0.094v4.132c0,3.965,0.186,7.952,0.371,11.915
			c-0.783-0.123-1.51-0.233-2.247-0.233c-0.738,0-1.466,0.11-2.264,0.233c0.195-3.963,0.366-7.95,0.366-11.915v-7.913
			c0-3.946-0.171-7.948-0.366-11.915c0.798,0.14,1.525,0.23,2.264,0.23c0.737,0,1.464-0.09,2.247-0.23
			c-0.185,3.967-0.371,7.968-0.371,11.915v1.616c3.225,0.051,6.397,0.138,9.62,0.138c3.222,0,6.393-0.086,9.626-0.138V18.503z"/>
		<path style="fill:#333333;" d="M105.897,5.984c10.175,0,17.259,6.03,17.259,16.469c0,10.465-7.084,16.475-17.259,16.475
			c-10.118,0-17.209-6.01-17.209-16.475C88.688,12.014,95.779,5.984,105.897,5.984z M105.897,7.685
			c-7.174,0-12.701,4.559-12.701,14.768c0,10.223,5.526,14.767,12.701,14.767c7.222,0,12.743-4.544,12.743-14.767
			C118.64,12.244,113.118,7.685,105.897,7.685z"/>
		<path style="fill:#333333;" d="M133.662,18.503c0-3.172-0.057-6.341-0.14-9.515c-3.182,0-7.285,0.188-9.846,0.504
			c0.132-0.463,0.235-0.967,0.235-1.486c0-0.46-0.103-0.905-0.235-1.418c3.97,0.14,7.908,0.23,11.87,0.23
			c3.955,0,7.916-0.09,11.876-0.23c-0.138,0.513-0.242,0.958-0.242,1.471c0,0.465,0.104,0.969,0.242,1.432
			c-2.586-0.316-6.68-0.504-9.85-0.504c-0.088,3.174-0.14,6.342-0.14,9.515v7.913c0,3.965,0.183,7.952,0.363,11.915
			c-0.785-0.123-1.521-0.233-2.249-0.233c-0.738,0-1.464,0.11-2.25,0.233c0.186-3.963,0.365-7.95,0.365-11.915V18.503z"/>
		<path style="fill:#333333;" d="M152.857,18.465c0-3.963-0.188-7.976-0.381-11.876c2.773,0.14,5.483,0.23,8.245,0.23
			c2.763,0,5.48-0.09,8.19-0.23c-0.087,0.462-0.142,0.912-0.142,1.377c0,0.465,0.054,0.923,0.142,1.385
			c-3.87-0.276-6.115-0.597-12.1-0.597c-0.039,1.988-0.195,3.591-0.195,5.846c0,2.4,0.054,4.921,0.054,6.079
			c5.431,0,8.471-0.228,11.192-0.471c-0.089,0.471-0.15,0.96-0.15,1.418c0,0.473,0.061,0.927,0.15,1.396
			c-3.178-0.327-8.985-0.423-11.192-0.423c-0.054,1.102-0.054,2.258-0.054,6.677c0,3.49,0.054,5.752,0.111,6.887
			c4.092,0,9.517-0.044,12.41-0.59c-0.086,0.421-0.119,1.019-0.119,1.436c0,0.408,0.032,0.901,0.119,1.322
			c-2.709-0.123-5.461-0.233-8.277-0.233c-2.809,0-5.571,0.11-8.384,0.233c0.193-4.007,0.381-7.994,0.381-11.959V18.465z"/>
		<path style="fill:#333333;" d="M175.879,18.503c0-3.946-0.19-7.948-0.374-11.915c0.798,0.14,1.509,0.23,2.265,0.23
			c0.726,0,1.463-0.09,2.245-0.23c-0.181,3.967-0.371,7.968-0.371,11.915c0,7.738,0.09,13.154,0.13,17.659
			c4.334,0,8.099,0,12.703-0.59c-0.129,0.46-0.224,0.91-0.224,1.394c0,0.45,0.095,0.896,0.224,1.364
			c-2.803-0.123-5.652-0.233-8.463-0.233c-2.856,0-5.652,0.11-8.51,0.233c0.184-3.963,0.374-7.95,0.374-11.915V18.503z"/>
	</g>
</g>
</svg>
