<?xml version="1.0" encoding="iso-8859-1"?>
<!-- Generator: Adobe Illustrator 25.0.1, SVG Export Plug-In . SVG Version: 6.00 Build 0)  -->
<svg version="1.1" id="&#x30EC;&#x30A4;&#x30E4;_xFF0D__1"
	 xmlns="http://www.w3.org/2000/svg" xmlns:xlink="http://www.w3.org/1999/xlink" x="0px" y="0px" viewBox="0 0 506.404 44.486"
	 style="enable-background:new 0 0 506.404 44.486;" xml:space="preserve">
<path style="fill:#231815;" d="M141.478,30.589v12.978h-37.091c-0.227,0-0.412-0.186-0.412-0.415c0-0.23,0.184-0.409,0.412-0.409
	h5.452V2.204h-5.452c-0.227,0-0.412-0.184-0.412-0.413c0-0.231,0.184-0.412,0.412-0.412h36.208v10.129
	c0,0.213-0.173,0.386-0.386,0.386c-0.212,0-0.31-0.143-0.386-0.386c-0.198-0.671-0.533-1.529-1.008-2.577
	c-0.474-1.047-1.135-2.064-1.984-3.052c-0.849-0.988-1.945-1.846-3.289-2.576c-1.343-0.731-2.983-1.098-4.918-1.098h-10.195v19.439
	h4.09c1.461,0,2.697-0.208,3.704-0.622c1.008-0.416,1.846-1.006,2.518-1.779c0.672-0.77,1.224-1.698,1.659-2.784
	c0.434-1.086,0.79-2.3,1.067-3.644c0.055-0.261,0.172-0.387,0.386-0.387c0.211,0,0.386,0.174,0.386,0.387v18.427
	c0,0.213-0.174,0.385-0.386,0.385c-0.213,0-0.318-0.095-0.386-0.385c-0.278-1.144-0.603-2.252-0.978-3.317
	c-0.375-1.067-0.88-2.005-1.511-2.815c-0.632-0.809-1.413-1.451-2.34-1.925c-0.929-0.474-2.085-0.711-3.467-0.711h-4.743v20.27
	h8.945c1.818,0,3.457-0.312,4.918-0.926c1.461-0.612,2.756-1.472,3.881-2.577c1.127-1.105,2.064-2.399,2.815-3.88
	c0.749-1.482,1.323-3.072,1.718-4.77c0.064-0.262,0.173-0.386,0.385-0.386C141.306,30.203,141.478,30.375,141.478,30.589z
	 M94.139,2.204c0.228,0,0.413-0.182,0.413-0.409c0-0.228-0.184-0.415-0.413-0.415H74.646c-0.228,0-0.412,0.187-0.412,0.415
	c0,0.227,0.184,0.409,0.412,0.409h5.449v19.439H62.972V2.204h5.451c0.228,0,0.413-0.182,0.413-0.409
	c0-0.228-0.184-0.415-0.413-0.415H48.93c-0.229,0-0.414,0.187-0.414,0.415c0,0.227,0.185,0.409,0.414,0.409h5.45v40.538h-5.45v0.002
	c-0.226,0.003-0.408,0.181-0.408,0.407c0,0.231,0.185,0.416,0.414,0.416c0.005,0,0.009-0.001,0.014-0.001h19.473
	c0.228,0,0.413-0.186,0.413-0.416c0-0.229-0.184-0.408-0.413-0.408h-5.451V22.471h17.123v20.272h-5.449
	c-0.228,0-0.412,0.179-0.412,0.408c0,0.231,0.184,0.416,0.412,0.416h19.493c0.228,0,0.413-0.186,0.413-0.416
	c0-0.229-0.185-0.408-0.413-0.408h-5.451V2.204H94.139z M301.071,29.787c-0.213,0-0.317,0.095-0.385,0.387
	c-0.513,2.29-1.234,4.235-2.161,5.833c-0.929,1.604-1.977,2.908-3.143,3.914c-1.164,1.007-2.408,1.729-3.733,2.161
	c-1.322,0.438-2.636,0.661-3.938,0.661h-9.777V2.204h5.451c0.228,0,0.412-0.182,0.412-0.409c0-0.228-0.184-0.415-0.412-0.415
	h-19.494c-0.226,0-0.412,0.187-0.412,0.415c0,0.227,0.186,0.409,0.412,0.409h5.452v40.538h-5.452c-0.226,0-0.412,0.179-0.412,0.408
	c0,0.231,0.186,0.416,0.412,0.416h37.566V30.174C301.456,29.962,301.284,29.787,301.071,29.787z M381.22,2.204
	c0.228,0,0.413-0.182,0.413-0.409c0-0.228-0.185-0.415-0.413-0.415h-19.495c-0.226,0-0.412,0.187-0.412,0.415
	c0,0.227,0.186,0.409,0.412,0.409h5.451v40.538h-5.451c-0.226,0-0.412,0.179-0.412,0.408c0,0.231,0.186,0.416,0.412,0.416h19.495
	c0.229,0,0.412-0.186,0.412-0.416c0-0.229-0.184-0.408-0.412-0.408h-5.451V2.204H381.22z M453.924,2.204
	c0.228,0,0.413-0.182,0.413-0.409c0-0.228-0.185-0.415-0.413-0.415h-19.494c-0.226,0-0.412,0.187-0.412,0.415
	c0,0.227,0.186,0.409,0.412,0.409h5.451v40.538h-5.451c-0.226,0-0.412,0.179-0.412,0.408c0,0.231,0.186,0.416,0.412,0.416h19.494
	c0.229,0,0.412-0.186,0.412-0.416c0-0.229-0.183-0.408-0.412-0.408h-5.451V2.204H453.924z M0,12.22c0,0.212,0.174,0.383,0.385,0.383
	c0.213,0,0.317-0.16,0.386-0.383C3.516,3.218,7.071,2.358,12.147,2.204h3.103v40.538H9.799c-0.228,0-0.413,0.179-0.413,0.408
	c0,0.231,0.184,0.416,0.413,0.416h19.494c0.227,0,0.412-0.186,0.412-0.416c0-0.229-0.185-0.408-0.412-0.408h-5.452V2.204h3.103
	c5.077,0.154,8.631,1.014,11.376,10.016c0.069,0.224,0.173,0.383,0.385,0.383c0.213,0,0.387-0.171,0.387-0.383V1.379H0V12.22z
	 M354.514,43.151c0,0.231-0.184,0.416-0.411,0.416h-19.395c-0.229,0-0.413-0.185-0.413-0.416c0-0.229,0.184-0.408,0.413-0.408h5.511
	l-6.873-15.061h-14.221l-6.576,15.061h5.271c0.227,0,0.411,0.18,0.411,0.408c0,0.231-0.184,0.416-0.411,0.416h-11.197
	c-0.229,0-0.413-0.185-0.413-0.416c0-0.229,0.184-0.408,0.413-0.408h4.976l17.658-42.2C329.373,0.266,329.5,0,329.8,0
	s0.422,0.269,0.543,0.543l18.664,42.2h5.096C354.33,42.742,354.514,42.922,354.514,43.151z M333.05,26.85l-6.991-16.178
	L319.42,26.85H333.05z M256.05,11.356c0.06,3.758-2.344,8.104-10.436,10.225c-4.161,1.09-12.297,0.889-12.297,0.889v20.272h5.452
	c0.228,0,0.412,0.18,0.412,0.409c0,0.23-0.185,0.415-0.412,0.415h-19.495c-0.228,0-0.412-0.186-0.412-0.415
	c0-0.229,0.184-0.409,0.412-0.409h5.452V2.204h-5.445c-0.002,0-0.005,0.001-0.007,0.001c-0.228,0-0.412-0.184-0.412-0.41
	c0-0.227,0.184-0.414,0.412-0.414V1.379c0,0,7.974,0.011,9.989,0c2.893-0.015,5.123-0.077,8.588-0.183
	C244.203,1.001,255.897,1.931,256.05,11.356z M246.325,11.629c-0.021-6.743-2.054-9.498-10.291-9.498
	c-0.435,0-2.394,0.063-2.718,0.073v19.438h3.468C242.605,21.642,246.349,19.645,246.325,11.629z M195.406,17.808
	c-7.422-2.152-12.387-3.894-12.387-9.529c0-6.462,7.229-7.531,10.362-7.475c5.86,0.105,9.31,2.767,12.185,12.06
	c0.092,0.296,0.184,0.409,0.408,0.409c0.226,0,0.407-0.185,0.407-0.409V0.929c0-0.278-0.224-0.501-0.502-0.501
	c-0.278,0-0.366,0.156-0.501,0.501c-0.212,0.5-0.349,1.322-1.759,1.322c-1.368,0-4.821-2.238-10.175-2.238
	c-10.942,0-14.604,6.954-14.604,12.026c0,6.15,3.383,10.786,12.468,13.484c10.058,2.987,12.206,4.746,12.206,8.918
	c0,1.971-1.162,10.366-13.496,8.997c-3.515-0.389-9.212-4.232-10.916-13.028c-0.054-0.278-0.199-0.445-0.444-0.445
	c-0.246,0-0.442,0.2-0.442,0.445v13.155c0,0.261,0.21,0.473,0.471,0.473c0.261,0,0.378-0.202,0.474-0.473
	c0.197-0.555,0.403-0.937,0.651-1.094c0.453-0.293,1.269-0.381,2.111-0.137c4.133,1.187,8.04,2.068,10.688,2.059
	c12.448-0.034,16.707-8.582,16.355-13.616C208.516,24.33,205.292,20.674,195.406,17.808z M410.263,17.808
	c-7.422-2.152-12.387-3.894-12.387-9.529c0-6.462,7.229-7.531,10.362-7.475c5.86,0.105,9.31,2.767,12.185,12.06
	c0.092,0.296,0.184,0.409,0.408,0.409c0.226,0,0.408-0.185,0.408-0.409V0.929c0-0.278-0.224-0.501-0.502-0.501
	c-0.278,0-0.366,0.156-0.501,0.501c-0.212,0.5-0.349,1.322-1.759,1.322c-1.368,0-4.821-2.238-10.175-2.238
	c-10.942,0-14.603,6.954-14.603,12.026c0,6.15,3.383,10.786,12.468,13.484c10.058,2.987,12.206,4.746,12.206,8.918
	c0,1.971-1.162,10.366-13.496,8.997c-3.515-0.389-9.212-4.232-10.916-13.028c-0.054-0.278-0.199-0.445-0.444-0.445
	c-0.246,0-0.442,0.2-0.442,0.445v13.155c0,0.261,0.21,0.473,0.471,0.473c0.261,0,0.378-0.202,0.474-0.473
	c0.197-0.555,0.403-0.937,0.651-1.094c0.453-0.293,1.269-0.381,2.111-0.137c4.133,1.187,8.04,2.068,10.688,2.059
	c12.448-0.034,16.707-8.582,16.355-13.616C423.373,24.33,420.149,20.674,410.263,17.808z M506.362,41.798
	c0.102,0.178,0.006,0.412-0.169,0.527c-2.221,1.464-4.633,2.161-7.175,2.161c-2.539,0-4.633-1.017-6.094-2.92
	c-2.094-2.793-1.715-6.412-1.966-10.793c-0.447-6.73-3.914-8.303-11.091-8.303c-0.415,0-1.716,0-1.716,0v20.272h5.452
	c0.228,0,0.412,0.18,0.412,0.409c0,0.23-0.185,0.416-0.412,0.416h-19.495c-0.228,0-0.412-0.186-0.412-0.416
	c0-0.229,0.184-0.409,0.412-0.409h5.452V2.204h-5.447c-0.002,0-0.004,0-0.005,0c-0.228,0-0.412-0.184-0.412-0.41
	c0-0.227,0.184-0.414,0.412-0.414V1.38c0,0,7.974,0.011,9.989,0c2.893-0.015,5.123-0.077,8.588-0.183
	c6.352-0.195,18.045,0.735,18.198,10.16c0.06,3.758-2.344,8.104-10.436,10.225c-0.639,0.168-1.374,0.343-2.161,0.422
	c-0.084,0.008-0.155,0.068-0.155,0.153c0,0.086,0.07,0.148,0.155,0.156c7.874,0.698,11.684,3.318,12.127,10.616
	c0.382,6.098-0.063,9.339,3.429,9.339c0.509,0,1.209-0.258,1.969-0.637C506.003,41.54,506.262,41.604,506.362,41.798z
	 M478.151,21.642h3.468c5.821,0,9.565-1.997,9.541-10.013c-0.021-6.743-2.054-9.498-10.291-9.498c-0.435,0-2.395,0.063-2.718,0.073
	V21.642z"/>
</svg>
